<?xml version="1.0" encoding="utf-8"?>
<!-- Generator: Adobe Illustrator 17.0.0, SVG Export Plug-In . SVG Version: 6.00 Build 0)  -->
<!DOCTYPE svg PUBLIC "-//W3C//DTD SVG 1.1//EN" "http://www.w3.org/Graphics/SVG/1.1/DTD/svg11.dtd">
<svg version="1.1" id="Ebene_1" xmlns="http://www.w3.org/2000/svg" xmlns:xlink="http://www.w3.org/1999/xlink" x="0px" y="0px"
	 width="321px" height="321px" viewBox="0 0 321 321" enable-background="new 0 0 321 321" xml:space="preserve">
<rect x="-0.137" y="0.5" fill="#36393D" width="321" height="321"/>
<g>
	<g>
		<g>
			<g>
				<g>
					<path fill="#C3C3D1" d="M163.862,34.5h-4.67c-30.923,0-57.329,24.163-57.329,55.091v74.661
						c0,30.927,26.406,55.248,57.329,55.248h4.67c30.923,0,56.001-24.321,56.001-55.248V89.591
						C219.863,58.663,194.785,34.5,163.862,34.5z M194.863,136.893c0,19.035-15.438,35.607-34.478,35.607h-1.562
						c-19.04,0-33.96-16.572-33.96-35.607V88.625c0-19.039,14.92-34.125,33.96-34.125h1.562c19.04,0,34.478,15.085,34.478,34.125
						V136.893z"/>
				</g>
			</g>
		</g>
	</g>
	<g>
		<g>
			<g>
				<g>
					<circle fill="#C3C3D1" cx="160.863" cy="195.344" r="91.201"/>
				</g>
				<g>
					<g>
						<path fill="#20AAE6" d="M196.302,169.235L196.302,169.235l-0.814-0.868c-0.2-0.209-0.408-0.425-0.599-0.63h-0.017
							l-34.896-36.765l-34.885,36.765l0,0c-0.039,0.039-0.092,0.087-0.131,0.126l-0.62,0.659l-0.665,0.713l0,0l-0.031,0.026
							c-8.389,9.149-13.006,20.988-13.006,33.344c0,27.215,22.13,49.341,49.341,49.341c27.218,0,49.361-22.126,49.361-49.341
							c0-12.356-4.617-24.195-13.011-33.344L196.302,169.235z"/>
					</g>
					<g>
						<path fill-rule="evenodd" clip-rule="evenodd" fill="#FFFFFF" d="M196.714,202.61c0,20.085-16.274,36.365-36.364,36.365
							c-20.086,0-36.361-16.279-36.361-36.365c0-20.086,16.274-36.361,36.361-36.361C180.44,166.249,196.714,182.523,196.714,202.61
							z"/>
						<path fill-rule="evenodd" clip-rule="evenodd" fill="#D8E620" d="M182.701,202.61c0,12.347-10.005,22.351-22.351,22.351
							c-12.343,0-22.347-10.004-22.347-22.351c0-12.344,10.004-22.347,22.347-22.347
							C172.696,180.262,182.701,190.266,182.701,202.61z"/>
						<circle fill-rule="evenodd" clip-rule="evenodd" fill="#FFFFFF" cx="160.352" cy="202.61" r="10.008"/>
					</g>
				</g>
			</g>
		</g>
	</g>
</g>
</svg>
