<?xml version="1.0" encoding="utf-8"?>
<!-- Generator: Adobe Illustrator 17.0.0, SVG Export Plug-In . SVG Version: 6.00 Build 0)  -->
<!DOCTYPE svg PUBLIC "-//W3C//DTD SVG 1.1//EN" "http://www.w3.org/Graphics/SVG/1.1/DTD/svg11.dtd">
<svg version="1.1" id="Ebene_1" xmlns="http://www.w3.org/2000/svg" xmlns:xlink="http://www.w3.org/1999/xlink" x="0px" y="0px"
	 width="1200px" height="630px" viewBox="0 0 1200 630" enable-background="new 0 0 1200 630" xml:space="preserve">
<g>
	<defs>
		<rect id="SVGID_3_" y="-717" width="1500" height="500"/>
	</defs>
	<clipPath id="SVGID_2_">
		<use xlink:href="#SVGID_3_"  overflow="visible"/>
	</clipPath>
	<g transform="matrix(1 0 0 1 -3.814697e-006 0)" clip-path="url(#SVGID_2_)">
		
			<image overflow="visible" width="1920" height="1080" xlink:href="A04EE252.jpg"  transform="matrix(0.7833 0 0 0.7833 55.6342 -745.4986)">
		</image>
	</g>
</g>
<g>
	<g>
		<g>
			<g>
				<g>
					<path fill="#C3C3D1" d="M599.147,169h-4.338C566.08,169,542,191.462,542,220.195v69.362C542,318.289,566.08,341,594.808,341
						h4.338C627.875,341,651,318.289,651,289.557v-69.362C651,191.462,627.875,169,599.147,169z M628,264.14
						c0,17.684-14.395,32.86-32.084,32.86h-1.451C576.776,297,563,281.824,563,264.14v-44.843C563,201.609,576.776,188,594.465,188
						h1.451C613.605,188,628,201.609,628,219.297V264.14z"/>
				</g>
			</g>
			<path fill="#36393D" d="M271.568,252.283h38.801l22.127,114.882l17.279-114.882h39.405l-32.434,147.925h-49.106l-16.672-91.241
				l-16.673,91.241h-49.106l-32.433-147.925h39.405l17.279,114.882L271.568,252.283z"/>
			<path fill="#36393D" d="M857.352,233.793c-4.346,4.243-9.549,6.364-15.612,6.364c-6.061,0-11.318-2.169-15.76-6.517
				c-4.449-4.343-6.67-9.594-6.67-15.761c0-6.163,2.221-11.416,6.67-15.764c4.442-4.342,9.699-6.517,15.76-6.517
				c6.063,0,11.266,2.175,15.612,6.517c4.342,4.349,6.515,9.654,6.515,15.915C863.868,224.295,861.694,229.549,857.352,233.793z
				 M821.432,400.208V252.283h40.619v147.925H821.432z"/>
			<path fill="#36393D" d="M942.678,351.707l-22.429,48.501h-42.136l41.223-78.813l-38.496-69.112h44.259l17.579,44.256
				l17.581-44.256h44.259l-38.498,69.112l41.223,78.813h-42.136L942.678,351.707z"/>
			<path fill="#36393D" d="M751.842,252h-6.365c-12.733,0-19.476,0.79-28.476,7.861V255h-38v4.906
				c11,16.696,18.996,37.131,18.996,59.225c0,22.092-7.996,42.528-18.996,59.223V400h41V284.415c0-1.616,0.865-3.708,1.978-4.921
				c1.108-1.213,2.782-2.494,4.403-2.494h16.668c1.617,0,2.073,1.281,3.188,2.494c1.108,1.213,0.763,3.306,0.763,4.921V400h44
				V289.263C791,262.59,776.898,252,751.842,252z"/>
			<path fill="#36393D" d="M496.43,319.131c0-19.696,4.952-36.704,14.626-52.291C505.254,256.046,493.757,252,477.817,252h-6.365
				c-10.51,0-18.452-0.323-24.452,4.526V203h-43v197h43V283.807c0-3.637,1.917-6.807,5.355-6.807h16.671
				c1.616,0,4.086,1.281,5.201,2.494c1.108,1.213,2.773,3.306,2.773,4.921V400h41v-19.85C499,363.134,496.43,342.013,496.43,319.131
				z"/>
		</g>
		<g>
			<path d="M295.13,439.617c0,2.85-0.967,5.034-2.903,6.554c-1.935,1.519-4.677,2.278-8.225,2.278h-4.557v12.177h-2.056v-29.474
				h7.218C291.622,431.151,295.13,433.974,295.13,439.617z M279.445,446.675h4.052c3.32,0,5.719-0.547,7.197-1.644
				c1.478-1.095,2.217-2.873,2.217-5.332c0-2.271-0.699-3.956-2.096-5.05c-1.399-1.095-3.562-1.642-6.492-1.642h-4.879V446.675z"/>
			<path d="M309.79,447.783v12.842h-2.056v-29.474h7.016c3.656,0,6.357,0.675,8.105,2.026c1.747,1.351,2.621,3.384,2.621,6.097
				c0,1.976-0.521,3.642-1.562,5c-1.041,1.358-2.624,2.332-4.747,2.923l8.004,13.428h-2.46l-7.6-12.842H309.79z M309.79,446.009
				h5.625c2.487,0,4.416-0.554,5.786-1.664c1.371-1.108,2.056-2.746,2.056-4.907c0-2.246-0.672-3.878-2.015-4.9
				c-1.344-1.022-3.536-1.531-6.573-1.531h-4.879V446.009z"/>
			<path d="M338.461,460.625v-29.474h2.056v29.474H338.461z"/>
			<path d="M372.476,431.151h2.238l-11.027,29.474h-1.814l-10.988-29.474h2.197l7.419,20.059c1.13,3.025,1.888,5.296,2.279,6.815
				c0.268-1.008,0.799-2.575,1.592-4.698L372.476,431.151z"/>
			<path d="M399.272,450.222h-11.975l-4.112,10.403h-2.278l11.854-29.596h1.31l11.612,29.596h-2.317L399.272,450.222z
				 M388.043,448.367h10.545l-4.013-10.623c-0.336-0.833-0.739-1.989-1.209-3.468c-0.363,1.29-0.76,2.459-1.19,3.508
				L388.043,448.367z"/>
			<path d="M428.63,432.582c-3.697,0-6.606,1.183-8.729,3.549c-2.124,2.364-3.186,5.605-3.186,9.717
				c0,4.206,1.002,7.471,3.004,9.797c2.002,2.325,4.865,3.488,8.588,3.488c2.473,0,4.744-0.316,6.814-0.947V460
				c-1.948,0.686-4.381,1.029-7.297,1.029c-4.14,0-7.4-1.338-9.778-4.013c-2.379-2.675-3.569-6.411-3.569-11.209
				c0-2.998,0.568-5.639,1.704-7.923c1.135-2.285,2.768-4.049,4.898-5.291c2.13-1.245,4.606-1.867,7.429-1.867
				c2.876,0,5.45,0.538,7.722,1.615l-0.827,1.853C433.254,433.12,430.995,432.582,428.63,432.582z"/>
			<path d="M454.661,447.279l8.629-16.128h2.217l-9.818,18.083v11.391h-2.118v-11.229l-9.858-18.244h2.358L454.661,447.279z"/>
			<path d="M491.098,453.144c0-1.853,0.494-3.434,1.482-4.737c0.988-1.303,2.833-2.682,5.534-4.133l-1.512-1.653
				c-0.887-0.954-1.545-1.887-1.976-2.802c-0.43-0.913-0.645-1.867-0.645-2.861c0-1.923,0.641-3.449,1.926-4.578
				c1.283-1.129,3.007-1.692,5.171-1.692c2.084,0,3.732,0.543,4.949,1.633c1.216,1.088,1.825,2.593,1.825,4.514
				c0,1.412-0.471,2.705-1.411,3.881c-0.941,1.176-2.641,2.484-5.1,3.922l9.112,9.213c0.82-0.967,1.519-2.024,2.097-3.166
				c0.578-1.142,1.081-2.493,1.511-4.051h1.936c-0.847,3.306-2.251,6.168-4.214,8.588l5.363,5.402h-2.722l-3.891-3.972
				c-1.236,1.211-2.338,2.094-3.306,2.653c-0.968,0.556-2.026,0.983-3.175,1.278c-1.149,0.295-2.457,0.445-3.922,0.445
				c-2.809,0-5.016-0.693-6.622-2.078C491.901,457.568,491.098,455.631,491.098,453.144z M500.271,459.214
				c1.72,0,3.296-0.293,4.727-0.879c1.432-0.584,2.84-1.569,4.224-2.952l-9.737-9.778c-1.828,0.967-3.149,1.792-3.962,2.471
				c-0.813,0.679-1.405,1.415-1.774,2.207c-0.37,0.792-0.555,1.719-0.555,2.782c0,1.921,0.626,3.427,1.876,4.514
				C496.32,458.669,498.054,459.214,500.271,459.214z M496.138,436.917c0,1.061,0.268,2.042,0.806,2.943
				c0.537,0.902,1.559,2.069,3.064,3.509c2.137-1.142,3.622-2.212,4.456-3.207c0.833-0.995,1.25-2.13,1.25-3.406
				c0-1.263-0.417-2.289-1.25-3.075c-0.833-0.786-1.963-1.178-3.387-1.178c-1.533,0-2.739,0.388-3.618,1.167
				C496.578,434.451,496.138,435.531,496.138,436.917z"/>
			<path d="M559.529,450.222h-11.975l-4.112,10.403h-2.278l11.854-29.596h1.31l11.612,29.596h-2.318L559.529,450.222z
				 M548.3,448.367h10.545l-4.013-10.623c-0.336-0.833-0.739-1.989-1.209-3.468c-0.363,1.29-0.76,2.459-1.19,3.508L548.3,448.367z"
				/>
			<path d="M597.737,460.625h-2.076l-17.46-26.167h-0.161c0.161,3.118,0.242,5.471,0.242,7.056v19.112h-1.976v-29.474h2.056
				l17.439,26.126h0.12c-0.12-2.418-0.18-4.717-0.18-6.894v-19.232h1.995V460.625z"/>
			<path d="M637.054,445.848c0,4.676-1.167,8.375-3.506,11.098c-2.339,2.72-5.568,4.083-9.678,4.083
				c-4.101,0-7.317-1.363-9.656-4.083c-2.339-2.723-3.511-6.436-3.511-11.138c0-4.692,1.181-8.384,3.538-11.077
				c2.362-2.696,5.582-4.042,9.669-4.042c4.11,0,7.33,1.354,9.656,4.06C635.891,437.457,637.054,441.156,637.054,445.848z
				 M612.942,445.848c0,4.219,0.94,7.482,2.825,9.787c1.88,2.305,4.583,3.456,8.102,3.456c3.547,0,6.258-1.142,8.134-3.427
				c1.876-2.284,2.811-5.557,2.811-9.817c0-4.249-0.935-7.503-2.811-9.769c-1.876-2.264-4.574-3.397-8.093-3.397
				c-3.511,0-6.213,1.144-8.116,3.429C613.891,438.395,612.942,441.64,612.942,445.848z"/>
			<path d="M671.449,460.625h-2.076l-17.458-26.167h-0.164c0.164,3.118,0.245,5.471,0.245,7.056v19.112h-1.976v-29.474h2.053
				l17.44,26.126h0.123c-0.123-2.418-0.182-4.717-0.182-6.894v-19.232h1.994V460.625z"/>
			<path d="M692.763,447.279l8.629-16.128h2.216l-9.819,18.083v11.391h-2.116v-11.229l-9.856-18.244h2.357L692.763,447.279z"/>
			<path d="M726.939,460.625l-10.986-27.216h-0.164c0.109,1.667,0.164,3.374,0.164,5.121v22.096h-1.976v-29.474h3.184l10.442,25.927
				h0.122l10.441-25.927h3.107v29.474h-2.076v-22.339c0-1.558,0.077-3.17,0.241-4.837h-0.163l-11.027,27.176H726.939z"/>
			<path d="M755.793,460.625v-29.474h2.053v29.474H755.793z"/>
			<path d="M780.068,460.625h-2.076v-27.539h-9.574v-1.935h21.228v1.935h-9.578V460.625z"/>
			<path d="M806.987,447.279l8.629-16.128h2.216l-9.819,18.083v11.391h-2.116v-11.229l-9.856-18.244h2.357L806.987,447.279z"/>
			<path d="M869.895,445.848c0,4.676-1.167,8.375-3.506,11.098c-2.339,2.72-5.568,4.083-9.678,4.083
				c-4.101,0-7.317-1.363-9.656-4.083c-2.339-2.723-3.511-6.436-3.511-11.138c0-4.692,1.181-8.384,3.538-11.077
				c2.362-2.696,5.582-4.042,9.669-4.042c4.11,0,7.331,1.354,9.656,4.06C868.732,437.457,869.895,441.156,869.895,445.848z
				 M845.782,445.848c0,4.219,0.94,7.482,2.825,9.787c1.88,2.305,4.583,3.456,8.102,3.456c3.547,0,6.258-1.142,8.134-3.427
				c1.876-2.284,2.811-5.557,2.811-9.817c0-4.249-0.936-7.503-2.811-9.769c-1.876-2.264-4.574-3.397-8.093-3.397
				c-3.511,0-6.213,1.144-8.116,3.429C846.732,438.395,845.782,441.64,845.782,445.848z"/>
			<path d="M899.129,453.024c0,2.459-0.904,4.408-2.711,5.847c-1.807,1.438-4.21,2.157-7.208,2.157c-3.602,0-6.363-0.397-8.284-1.19
				v-2.057c2.126,0.902,4.832,1.351,8.125,1.351c2.416,0,4.338-0.554,5.755-1.662c1.417-1.11,2.125-2.564,2.125-4.364
				c0-1.117-0.232-2.039-0.704-2.773c-0.472-0.734-1.235-1.401-2.298-2.005c-1.063-0.606-2.621-1.258-4.678-1.957
				c-3.011-1.033-5.091-2.153-6.24-3.356c-1.149-1.201-1.721-2.804-1.721-4.807c0-2.205,0.863-4.001,2.589-5.393
				c1.726-1.39,3.951-2.087,6.663-2.087c2.77,0,5.368,0.525,7.802,1.574l-0.745,1.774c-2.448-1.022-4.787-1.533-7.017-1.533
				c-2.175,0-3.91,0.504-5.2,1.512c-1.29,1.008-1.935,2.38-1.935,4.112c0,1.09,0.195,1.983,0.595,2.682
				c0.395,0.699,1.045,1.326,1.944,1.885c0.899,0.559,2.448,1.226,4.637,2.005c2.298,0.795,4.024,1.562,5.182,2.31
				c1.154,0.745,1.998,1.592,2.53,2.539C898.866,450.535,899.129,451.68,899.129,453.024z"/>
		</g>
	</g>
	<g>
		<g>
			<g>
				<g>
					<circle fill="#C3C3D1" cx="600" cy="315" r="84.729"/>
				</g>
				<g>
					<g>
						<path fill="#20AAE6" d="M633.261,290.744L633.261,290.744l-0.756-0.806c-0.186-0.194-0.379-0.395-0.556-0.585h-0.016
							l-32.42-34.156l-32.41,34.156l0,0c-0.036,0.036-0.085,0.081-0.121,0.117l-0.576,0.612l-0.618,0.662l0,0l-0.028,0.024
							c-7.794,8.5-12.083,19.499-12.083,30.978c0,25.284,20.559,45.84,45.84,45.84c25.286,0,45.858-20.556,45.858-45.84
							c0-11.479-4.29-22.478-12.088-30.978L633.261,290.744z"/>
					</g>
					<g>
						<path fill-rule="evenodd" clip-rule="evenodd" fill="#FFFFFF" d="M633.307,321.75c0,18.66-15.119,33.784-33.784,33.784
							c-18.661,0-33.78-15.124-33.78-33.784c0-18.661,15.12-33.78,33.78-33.78C618.188,287.97,633.307,303.089,633.307,321.75z"/>
						<path fill-rule="evenodd" clip-rule="evenodd" fill="#D8E620" d="M620.288,321.75c0,11.47-9.295,20.765-20.765,20.765
							c-11.467,0-20.761-9.294-20.761-20.765c0-11.468,9.294-20.761,20.761-20.761C610.994,300.989,620.288,310.282,620.288,321.75z
							"/>
						<circle fill-rule="evenodd" clip-rule="evenodd" fill="#FFFFFF" cx="599.525" cy="321.75" r="9.297"/>
					</g>
				</g>
			</g>
		</g>
	</g>
</g>
</svg>
