<?xml version="1.0" encoding="utf-8"?>
<!-- Generator: Adobe Illustrator 17.0.0, SVG Export Plug-In . SVG Version: 6.00 Build 0)  -->
<!DOCTYPE svg PUBLIC "-//W3C//DTD SVG 1.1//EN" "http://www.w3.org/Graphics/SVG/1.1/DTD/svg11.dtd">
<svg version="1.1" id="Ebene_1" xmlns="http://www.w3.org/2000/svg" xmlns:xlink="http://www.w3.org/1999/xlink" x="0px" y="0px"
	 width="1500px" height="500px" viewBox="0 0 1500 500" enable-background="new 0 0 1500 500" xml:space="preserve">
<g>
	<defs>
		<rect id="SVGID_1_" y="-657" width="1702" height="630"/>
	</defs>
	<clipPath id="SVGID_2_">
		<use xlink:href="#SVGID_1_"  overflow="visible"/>
	</clipPath>
	<g transform="matrix(1 0 0 1 0 0)" clip-path="url(#SVGID_2_)">
		
			<image overflow="visible" width="1920" height="1080" xlink:href="D79A8A96.jpg"  transform="matrix(0.8875 0 0 0.8875 0 -656.6667)">
		</image>
	</g>
</g>
<g>
	<defs>
		<rect id="SVGID_3_" width="1500" height="500"/>
	</defs>
	<clipPath id="SVGID_4_">
		<use xlink:href="#SVGID_3_"  overflow="visible"/>
	</clipPath>
	<g transform="matrix(1 0 0 1 -3.814697e-006 -1.907349e-006)" clip-path="url(#SVGID_4_)">
		
			<image overflow="visible" width="1920" height="1080" xlink:href="D79A8A9A.jpg"  transform="matrix(0.7833 0 0 0.7833 55.6342 -28.4986)">
		</image>
	</g>
</g>
<g>
	<g>
		<g>
			<g>
				<g>
					<path fill="#C3C3D1" d="M749.572,177h-2.175c-14.4,0-26.398,11.079-26.398,25.481v34.767C721,251.649,732.998,263,747.398,263
						h2.175c14.4,0,26.428-11.351,26.428-25.753v-34.767C776,188.079,763.972,177,749.572,177z M764,224.507
						c0,8.864-7.181,16.493-16.047,16.493h-0.727C738.36,241,731,233.371,731,224.507V202.03c0-8.866,7.36-16.03,16.226-16.03h0.727
						c8.866,0,16.047,7.165,16.047,16.03V224.507z"/>
				</g>
			</g>
			<path fill="#36393D" d="M585.379,218.564h19.448l11.091,57.582l8.661-57.582h19.751l-16.257,74.145H603.46l-8.356-45.733
				l-8.357,45.733h-24.614l-16.257-74.145h19.751l8.661,57.582L585.379,218.564z"/>
			<path fill="#36393D" d="M878.993,209.296c-2.179,2.127-4.786,3.19-7.825,3.19c-3.038,0-5.673-1.087-7.899-3.267
				c-2.23-2.177-3.343-4.809-3.343-7.9c0-3.089,1.113-5.722,3.343-7.902c2.226-2.176,4.861-3.267,7.899-3.267
				c3.039,0,5.647,1.09,7.825,3.267c2.176,2.18,3.266,4.839,3.266,7.977C882.259,204.536,881.17,207.169,878.993,209.296z
				 M860.989,292.709v-74.145h20.359v74.145H860.989z"/>
			<path fill="#36393D" d="M921.761,268.399l-11.242,24.31h-21.12l20.662-39.503l-19.295-34.641h22.184l8.811,22.182l8.812-22.182
				h22.184l-19.296,34.641l20.662,39.503h-21.12L921.761,268.399z"/>
			<path fill="#36393D" d="M826.108,218h-3.19c-6.382,0-10.918,0.818-14.918,4.363V220h-19v2.385c6,8.369,9.521,18.611,9.521,29.686
				c0,11.073-3.521,21.316-9.521,29.684V293h20v-58.33c0-0.81,1.008-1.335,1.565-1.943c0.555-0.608,1.968-0.727,2.781-0.727h8.354
				c0.81,0,0.699,0.119,1.258,0.727c0.555,0.608,0.042,1.133,0.042,1.943V293h22v-55.9C845,223.73,838.667,218,826.108,218z"/>
			<path fill="#36393D" d="M697.638,252.07c0-9.872,2.707-18.609,7.556-26.421c-2.908-5.41-8.446-7.649-16.436-7.649h-3.19
				C680.3,218,675,218.26,672,220.691V195h-21v98h21v-58.635c0-1.823,2.272-2.365,3.995-2.365h8.356c0.81,0,1.374,0.119,1.933,0.727
				c0.555,0.608,0.716,1.133,0.716,1.943V293h21v-10.345C699,274.126,697.638,263.54,697.638,252.07z"/>
		</g>
		<g>
			<path d="M597.189,312.462c0,1.428-0.485,2.523-1.455,3.285c-0.97,0.762-2.344,1.142-4.123,1.142h-2.284v6.103h-1.031v-14.773
				h3.618C595.431,308.219,597.189,309.634,597.189,312.462z M589.327,316h2.031c1.664,0,2.867-0.274,3.608-0.824
				c0.741-0.549,1.111-1.44,1.111-2.673c0-1.138-0.351-1.983-1.051-2.531c-0.701-0.549-1.785-0.823-3.254-0.823h-2.445V316z"/>
			<path d="M604.537,316.555v6.437h-1.031v-14.773h3.517c1.833,0,3.187,0.338,4.062,1.015c0.876,0.677,1.314,1.696,1.314,3.056
				c0,0.99-0.261,1.826-0.783,2.506c-0.522,0.681-1.315,1.169-2.379,1.465l4.012,6.73h-1.233l-3.809-6.437H604.537z
				 M604.537,315.666h2.819c1.246,0,2.213-0.278,2.9-0.834c0.687-0.556,1.031-1.376,1.031-2.46c0-1.126-0.337-1.944-1.01-2.456
				c-0.674-0.512-1.772-0.767-3.295-0.767h-2.445V315.666z"/>
			<path d="M618.908,322.992v-14.773h1.031v14.773H618.908z"/>
			<path d="M635.958,308.219h1.122l-5.527,14.773h-0.909l-5.507-14.773h1.101l3.719,10.054c0.566,1.516,0.946,2.654,1.142,3.416
				c0.134-0.505,0.401-1.291,0.798-2.355L635.958,308.219z"/>
			<path d="M649.389,317.778h-6.002l-2.061,5.214h-1.142l5.942-14.835h0.657l5.82,14.835h-1.162L649.389,317.778z M643.76,316.848
				h5.285l-2.011-5.325c-0.168-0.418-0.37-0.997-0.606-1.738c-0.182,0.647-0.381,1.233-0.596,1.759L643.76,316.848z"/>
			<path d="M664.104,308.936c-1.853,0-3.311,0.593-4.375,1.779c-1.065,1.185-1.597,2.809-1.597,4.871
				c0,2.108,0.502,3.745,1.506,4.91c1.003,1.166,2.439,1.748,4.305,1.748c1.239,0,2.378-0.158,3.415-0.475v0.909
				c-0.976,0.344-2.196,0.516-3.658,0.516c-2.075,0-3.709-0.67-4.901-2.011c-1.192-1.341-1.789-3.213-1.789-5.618
				c0-1.503,0.285-2.826,0.854-3.971c0.569-1.145,1.388-2.03,2.455-2.652c1.068-0.624,2.309-0.936,3.724-0.936
				c1.442,0,2.732,0.27,3.871,0.809l-0.414,0.929C666.421,309.206,665.289,308.936,664.104,308.936z"/>
			<path d="M677.151,316.302l4.325-8.084h1.112l-4.921,9.064v5.709h-1.061v-5.629l-4.941-9.145h1.182L677.151,316.302z"/>
			<path d="M695.415,319.242c0-0.929,0.248-1.721,0.743-2.374c0.495-0.653,1.42-1.344,2.774-2.072l-0.758-0.829
				c-0.444-0.478-0.775-0.946-0.99-1.405c-0.216-0.458-0.323-0.936-0.323-1.434c0-0.964,0.321-1.729,0.965-2.295
				c0.643-0.566,1.507-0.848,2.592-0.848c1.044,0,1.871,0.272,2.481,0.818c0.61,0.545,0.915,1.3,0.915,2.263
				c0,0.708-0.236,1.356-0.707,1.945c-0.472,0.59-1.324,1.245-2.556,1.966l4.567,4.618c0.411-0.485,0.761-1.014,1.051-1.587
				c0.29-0.573,0.542-1.25,0.757-2.031h0.97c-0.424,1.657-1.128,3.091-2.112,4.305l2.688,2.708h-1.364l-1.95-1.991
				c-0.62,0.607-1.172,1.049-1.657,1.33c-0.485,0.279-1.015,0.493-1.591,0.641c-0.576,0.148-1.232,0.223-1.966,0.223
				c-1.408,0-2.514-0.347-3.319-1.042C695.817,321.46,695.415,320.489,695.415,319.242z M700.013,322.285
				c0.862,0,1.652-0.147,2.369-0.44c0.718-0.293,1.423-0.786,2.117-1.48l-4.881-4.901c-0.916,0.485-1.578,0.898-1.986,1.238
				c-0.407,0.34-0.704,0.709-0.889,1.106c-0.185,0.397-0.278,0.862-0.278,1.394c0,0.963,0.314,1.718,0.94,2.263
				C698.032,322.012,698.901,322.285,700.013,322.285z M697.941,311.109c0,0.532,0.134,1.023,0.404,1.475
				c0.269,0.452,0.781,1.037,1.536,1.759c1.071-0.573,1.816-1.109,2.233-1.607c0.418-0.499,0.627-1.068,0.627-1.707
				c0-0.633-0.209-1.147-0.627-1.541c-0.418-0.394-0.984-0.591-1.698-0.591c-0.768,0-1.373,0.195-1.814,0.585
				C698.161,309.873,697.941,310.414,697.941,311.109z"/>
			<path d="M729.715,317.778h-6.002l-2.061,5.214h-1.142l5.941-14.835h0.657l5.82,14.835h-1.162L729.715,317.778z M724.086,316.848
				h5.285l-2.011-5.325c-0.168-0.418-0.37-0.997-0.606-1.738c-0.182,0.647-0.381,1.233-0.596,1.759L724.086,316.848z"/>
			<path d="M748.865,322.992h-1.04l-8.751-13.116h-0.081c0.081,1.563,0.121,2.742,0.121,3.536v9.579h-0.99v-14.773h1.031
				l8.741,13.095h0.06c-0.06-1.212-0.09-2.364-0.09-3.456v-9.64h1V322.992z"/>
			<path d="M768.573,315.585c0,2.344-0.585,4.198-1.757,5.562c-1.172,1.364-2.791,2.047-4.851,2.047
				c-2.056,0-3.667-0.683-4.84-2.047c-1.172-1.365-1.76-3.226-1.76-5.583c0-2.352,0.592-4.202,1.773-5.552
				c1.184-1.351,2.798-2.026,4.847-2.026c2.06,0,3.674,0.678,4.84,2.035C767.99,311.38,768.573,313.234,768.573,315.585z
				 M756.487,315.585c0,2.115,0.471,3.75,1.416,4.906c0.942,1.155,2.297,1.732,4.061,1.732c1.778,0,3.137-0.573,4.077-1.718
				c0.94-1.145,1.409-2.785,1.409-4.92c0-2.13-0.469-3.761-1.409-4.897c-0.94-1.135-2.292-1.703-4.057-1.703
				c-1.76,0-3.114,0.574-4.068,1.719C756.963,311.85,756.487,313.476,756.487,315.585z"/>
			<path d="M785.812,322.992h-1.04l-8.751-13.116h-0.082c0.082,1.563,0.123,2.742,0.123,3.536v9.579h-0.99v-14.773h1.029
				l8.742,13.095h0.061c-0.061-1.212-0.091-2.364-0.091-3.456v-9.64h0.999V322.992z"/>
			<path d="M796.496,316.302l4.325-8.084h1.111l-4.922,9.064v5.709h-1.061v-5.629l-4.94-9.145h1.182L796.496,316.302z"/>
			<path d="M813.626,322.992l-5.507-13.642h-0.082c0.055,0.835,0.082,1.691,0.082,2.567v11.075h-0.99v-14.773h1.596l5.234,12.995
				h0.061l5.234-12.995h1.557v14.773h-1.04v-11.197c0-0.781,0.039-1.589,0.121-2.424h-0.082l-5.527,13.621H813.626z"/>
			<path d="M828.089,322.992v-14.773h1.029v14.773H828.089z"/>
			<path d="M840.256,322.992h-1.04v-13.803h-4.799v-0.97h10.64v0.97h-4.801V322.992z"/>
			<path d="M853.749,316.302l4.325-8.084h1.111l-4.922,9.064v5.709h-1.061v-5.629l-4.94-9.145h1.182L853.749,316.302z"/>
			<path d="M885.28,315.585c0,2.344-0.585,4.198-1.758,5.562c-1.172,1.364-2.791,2.047-4.851,2.047c-2.056,0-3.667-0.683-4.84-2.047
				c-1.172-1.365-1.76-3.226-1.76-5.583c0-2.352,0.592-4.202,1.773-5.552c1.184-1.351,2.798-2.026,4.847-2.026
				c2.06,0,3.674,0.678,4.84,2.035C884.697,311.38,885.28,313.234,885.28,315.585z M873.194,315.585c0,2.115,0.471,3.75,1.416,4.906
				c0.942,1.155,2.297,1.732,4.061,1.732c1.778,0,3.137-0.573,4.077-1.718c0.94-1.145,1.409-2.785,1.409-4.92
				c0-2.13-0.469-3.761-1.409-4.897c-0.94-1.135-2.292-1.703-4.057-1.703c-1.76,0-3.114,0.574-4.068,1.719
				C873.67,311.85,873.194,313.476,873.194,315.585z"/>
			<path d="M899.933,319.182c0,1.233-0.453,2.209-1.359,2.931c-0.906,0.721-2.11,1.081-3.613,1.081
				c-1.805,0-3.189-0.199-4.152-0.596v-1.031c1.065,0.452,2.422,0.677,4.073,0.677c1.211,0,2.174-0.278,2.884-0.833
				c0.71-0.557,1.065-1.285,1.065-2.188c0-0.56-0.116-1.022-0.353-1.39c-0.237-0.368-0.619-0.702-1.152-1.005
				c-0.533-0.304-1.314-0.631-2.345-0.981c-1.509-0.518-2.552-1.079-3.128-1.682c-0.576-0.602-0.863-1.406-0.863-2.41
				c0-1.105,0.432-2.006,1.297-2.703c0.865-0.697,1.981-1.046,3.34-1.046c1.389,0,2.691,0.263,3.911,0.789l-0.373,0.889
				c-1.227-0.512-2.399-0.768-3.517-0.768c-1.09,0-1.96,0.253-2.607,0.758c-0.647,0.505-0.97,1.193-0.97,2.061
				c0,0.546,0.098,0.994,0.298,1.344c0.198,0.351,0.524,0.665,0.974,0.945c0.451,0.28,1.227,0.615,2.324,1.005
				c1.152,0.398,2.017,0.783,2.597,1.158c0.578,0.373,1.002,0.798,1.268,1.273C899.801,317.935,899.933,318.508,899.933,319.182z"/>
		</g>
	</g>
	<g>
		<g>
			<g>
				<g>
					<circle fill="#C3C3D1" cx="748.183" cy="251.726" r="42.469"/>
				</g>
				<g>
					<g>
						<path fill="#20AAE6" d="M764.855,239.568L764.855,239.568l-0.379-0.404c-0.093-0.097-0.19-0.198-0.279-0.293h-0.008
							l-16.25-17.12l-16.245,17.12l0,0c-0.018,0.018-0.043,0.04-0.061,0.059l-0.289,0.307l-0.31,0.332l0,0l-0.014,0.012
							c-3.906,4.26-6.057,9.773-6.057,15.527c0,12.673,10.305,22.976,22.976,22.976c12.674,0,22.985-10.303,22.985-22.976
							c0-5.754-2.15-11.267-6.059-15.527L764.855,239.568z"/>
					</g>
					<g>
						<path fill-rule="evenodd" clip-rule="evenodd" fill="#FFFFFF" d="M764.878,255.109c0,9.353-7.578,16.934-16.933,16.934
							c-9.353,0-16.932-7.581-16.932-16.934c0-9.353,7.578-16.932,16.932-16.932C757.3,238.177,764.878,245.755,764.878,255.109z"/>
						<circle fill-rule="evenodd" clip-rule="evenodd" fill="#D8E620" cx="747.946" cy="255.109" r="10.407"/>
						<circle fill-rule="evenodd" clip-rule="evenodd" fill="#FFFFFF" cx="747.946" cy="255.109" r="4.66"/>
					</g>
				</g>
			</g>
		</g>
	</g>
</g>
</svg>
