<?xml version="1.0" encoding="utf-8"?>
<!-- Generator: Adobe Illustrator 17.0.0, SVG Export Plug-In . SVG Version: 6.00 Build 0)  -->
<!DOCTYPE svg PUBLIC "-//W3C//DTD SVG 1.1//EN" "http://www.w3.org/Graphics/SVG/1.1/DTD/svg11.dtd">
<svg version="1.1" id="Ebene_1" xmlns="http://www.w3.org/2000/svg" xmlns:xlink="http://www.w3.org/1999/xlink" x="0px" y="0px"
	 width="300px" height="154.188px" viewBox="0 0 300 154.188" enable-background="new 0 0 300 154.188" xml:space="preserve">
<g>
	<defs>
		<rect id="SVGID_3_" y="-523.813" width="1500" height="500"/>
	</defs>
	<clipPath id="SVGID_2_">
		<use xlink:href="#SVGID_3_"  overflow="visible"/>
	</clipPath>
	<g transform="matrix(1 0 0 1 -3.814697e-006 0)" clip-path="url(#SVGID_2_)">
		
			<image overflow="visible" width="1920" height="1080" xlink:href="62AF65BB.jpg"  transform="matrix(0.7833 0 0 0.7833 55.6342 -552.3111)">
		</image>
	</g>
</g>
<g>
	<g>
		<g>
			<g>
				<path fill="#C3C3D1" d="M149.687,0.188h-1.59C137.568,0.188,129,8.91,129,19.441v25.421c0,10.53,8.568,19.325,19.097,19.325
					h1.59c10.529,0,19.313-8.794,19.313-19.325V19.441C169,8.91,160.216,0.188,149.687,0.188z M160,35.547
					c0,6.481-5.014,11.64-11.497,11.64h-0.532c-6.483,0-11.972-5.159-11.972-11.64V19.112c0-6.483,5.488-11.925,11.972-11.925h0.532
					c6.483,0,11.497,5.442,11.497,11.925V35.547z"/>
			</g>
		</g>
		<path fill="#36393D" d="M29.629,31.202h14.221l8.11,42.104l6.333-42.104h14.442L60.847,85.417H42.85l-6.11-33.44l-6.111,33.44
			H12.631L0.744,31.202h14.442l6.333,42.104L29.629,31.202z"/>
		<path fill="#36393D" d="M244.32,24.425c-1.593,1.555-3.5,2.332-5.722,2.332c-2.221,0-4.148-0.795-5.776-2.389
			c-1.63-1.592-2.444-3.516-2.444-5.776c0-2.259,0.814-4.184,2.444-5.778c1.628-1.591,3.555-2.389,5.776-2.389
			c2.222,0,4.129,0.797,5.722,2.389c1.591,1.594,2.388,3.538,2.388,5.833C246.708,20.944,245.912,22.869,244.32,24.425z
			 M231.156,85.417V31.202h14.887v54.215H231.156z"/>
		<path fill="#36393D" d="M275.592,67.641l-8.22,17.776h-15.443l15.108-28.885l-14.109-25.33h16.221l6.443,16.22l6.443-16.22h16.221
			l-14.11,25.33l15.108,28.885h-15.443L275.592,67.641z"/>
		<path fill="#36393D" d="M205.65,31.188h-2.333c-4.667,0-7.318,0.2-10.318,2.791v-1.791h-14v1.808
			c4,6.119,6.962,13.609,6.962,21.706c0,8.097-2.962,15.586-6.962,21.705v7.781h15v-42.21c0-0.592,0.307-1.396,0.715-1.84
			c0.406-0.444,1.01-0.95,1.604-0.95h6.109c0.593,0,0.822,0.506,1.231,0.95c0.406,0.444,0.342,1.248,0.342,1.84v42.21h16V44.755
			C220,34.979,214.834,31.188,205.65,31.188z"/>
		<path fill="#36393D" d="M112.068,55.701c0-7.219,1.802-13.407,5.347-19.12c-2.126-3.956-6.353-5.394-12.196-5.394h-2.333
			c-3.852,0-6.887-0.208-8.887,1.569V13.188H78v72h16V42.755c0-1.333,0.628-2.568,1.888-2.568h6.11c0.592,0,1.537,0.506,1.946,0.95
			c0.406,0.444,1.056,1.248,1.056,1.84v42.21h15v-7.122C113,71.829,112.068,64.088,112.068,55.701z"/>
	</g>
	<g>
		<path d="M38.264,99.86c0,1.045-0.355,1.845-1.064,2.402c-0.709,0.557-1.714,0.835-3.015,0.835h-1.67v4.463h-0.754V96.757h2.645
			C36.979,96.757,38.264,97.792,38.264,99.86z M32.516,102.447h1.485c1.217,0,2.096-0.201,2.638-0.603
			c0.542-0.401,0.813-1.053,0.813-1.954c0-0.832-0.256-1.45-0.768-1.851c-0.513-0.401-1.305-0.602-2.379-0.602h-1.788V102.447z"/>
		<path d="M43.637,102.853v4.707h-0.754V96.757h2.571c1.34,0,2.33,0.247,2.97,0.742c0.64,0.495,0.96,1.24,0.96,2.235
			c0,0.724-0.191,1.335-0.573,1.833c-0.382,0.498-0.962,0.855-1.74,1.071l2.933,4.921h-0.902l-2.785-4.707H43.637z M43.637,102.203
			h2.062c0.911,0,1.618-0.203,2.121-0.61c0.502-0.406,0.754-1.006,0.754-1.799c0-0.823-0.246-1.421-0.739-1.796
			c-0.493-0.375-1.296-0.561-2.409-0.561h-1.788V102.203z"/>
		<path d="M54.145,107.559V96.757h0.754v10.802H54.145z"/>
		<path d="M66.612,96.757h0.82l-4.042,10.802h-0.665l-4.027-10.802h0.805l2.719,7.352c0.414,1.109,0.692,1.941,0.835,2.498
			c0.098-0.37,0.293-0.944,0.583-1.722L66.612,96.757z"/>
		<path d="M76.433,103.747h-4.389l-1.507,3.813h-0.835l4.344-10.847h0.48l4.256,10.847h-0.849L76.433,103.747z M72.317,103.067
			h3.865l-1.471-3.893c-0.123-0.305-0.271-0.729-0.443-1.271c-0.133,0.473-0.278,0.901-0.436,1.286L72.317,103.067z"/>
		<path d="M87.192,97.282c-1.355,0-2.421,0.434-3.199,1.301c-0.779,0.866-1.168,2.054-1.168,3.561c0,1.541,0.367,2.738,1.101,3.59
			c0.734,0.852,1.783,1.278,3.148,1.278c0.906,0,1.739-0.116,2.497-0.347v0.665c-0.714,0.251-1.606,0.377-2.674,0.377
			c-1.517,0-2.712-0.49-3.584-1.471c-0.872-0.98-1.308-2.349-1.308-4.108c0-1.099,0.208-2.067,0.625-2.904
			c0.416-0.837,1.015-1.484,1.795-1.939c0.781-0.456,1.688-0.684,2.723-0.684c1.054,0,1.997,0.197,2.83,0.592l-0.303,0.679
			C88.887,97.479,88.059,97.282,87.192,97.282z"/>
		<path d="M96.733,102.668l3.163-5.911h0.813l-3.598,6.627v4.175h-0.776v-4.116l-3.613-6.687h0.864L96.733,102.668z"/>
		<path d="M110.087,104.818c0-0.679,0.181-1.258,0.543-1.736c0.362-0.478,1.038-0.983,2.028-1.515l-0.554-0.606
			c-0.325-0.35-0.566-0.692-0.724-1.027c-0.158-0.335-0.236-0.684-0.236-1.049c0-0.705,0.235-1.264,0.706-1.678
			c0.47-0.414,1.102-0.62,1.895-0.62c0.764,0,1.368,0.199,1.814,0.598c0.446,0.399,0.669,0.95,0.669,1.655
			c0,0.518-0.173,0.991-0.517,1.422c-0.345,0.431-0.968,0.911-1.869,1.437l3.34,3.377c0.3-0.355,0.557-0.742,0.769-1.16
			c0.212-0.419,0.396-0.914,0.554-1.485h0.71c-0.31,1.212-0.825,2.26-1.544,3.148l1.965,1.98h-0.997l-1.426-1.456
			c-0.453,0.444-0.857,0.767-1.212,0.972c-0.355,0.204-0.742,0.36-1.164,0.469c-0.421,0.108-0.9,0.163-1.437,0.163
			c-1.03,0-1.838-0.254-2.427-0.762C110.381,106.439,110.087,105.729,110.087,104.818z M113.449,107.042
			c0.63,0,1.208-0.107,1.732-0.322c0.525-0.214,1.041-0.575,1.548-1.082l-3.569-3.584c-0.67,0.355-1.154,0.657-1.452,0.906
			c-0.298,0.249-0.515,0.519-0.65,0.809c-0.136,0.29-0.203,0.63-0.203,1.02c0,0.704,0.229,1.256,0.687,1.655
			C112.001,106.843,112.636,107.042,113.449,107.042z M111.934,98.87c0,0.389,0.098,0.748,0.295,1.079
			c0.197,0.33,0.571,0.758,1.123,1.286c0.783-0.419,1.328-0.811,1.633-1.175c0.305-0.365,0.458-0.781,0.458-1.248
			c0-0.463-0.153-0.839-0.458-1.127c-0.305-0.288-0.72-0.432-1.241-0.432c-0.562,0-1.004,0.142-1.326,0.428
			C112.095,97.967,111.934,98.363,111.934,98.87z"/>
		<path d="M135.167,103.747h-4.389l-1.507,3.813h-0.835l4.344-10.847h0.48l4.256,10.847h-0.849L135.167,103.747z M131.052,103.067
			h3.865l-1.471-3.893c-0.123-0.305-0.271-0.729-0.443-1.271c-0.133,0.473-0.278,0.901-0.436,1.286L131.052,103.067z"/>
		<path d="M149.17,107.559h-0.761l-6.399-9.59h-0.059c0.059,1.143,0.089,2.005,0.089,2.586v7.004h-0.724V96.757h0.754l6.391,9.575
			h0.044c-0.044-0.886-0.066-1.729-0.066-2.527v-7.049h0.731V107.559z"/>
		<path d="M163.58,102.144c0,1.714-0.428,3.069-1.285,4.067c-0.857,0.997-2.041,1.496-3.547,1.496c-1.503,0-2.682-0.499-3.539-1.496
			c-0.857-0.998-1.287-2.359-1.287-4.082c0-1.72,0.433-3.073,1.297-4.06c0.866-0.988,2.046-1.481,3.544-1.481
			c1.506,0,2.687,0.496,3.539,1.488C163.154,99.068,163.58,100.424,163.58,102.144z M154.743,102.144
			c0,1.546,0.345,2.742,1.035,3.587c0.689,0.845,1.68,1.267,2.97,1.267c1.3,0,2.294-0.419,2.981-1.256
			c0.688-0.837,1.03-2.037,1.03-3.598c0-1.557-0.343-2.75-1.03-3.58c-0.687-0.83-1.676-1.245-2.966-1.245
			c-1.287,0-2.277,0.419-2.975,1.257C155.091,99.412,154.743,100.602,154.743,102.144z"/>
		<path d="M176.186,107.559h-0.761l-6.399-9.59h-0.06c0.06,1.143,0.09,2.005,0.09,2.586v7.004h-0.724V96.757h0.752l6.392,9.575
			h0.045c-0.045-0.886-0.067-1.729-0.067-2.527v-7.049h0.731V107.559z"/>
		<path d="M183.998,102.668l3.163-5.911h0.812l-3.599,6.627v4.175h-0.776v-4.116l-3.612-6.687h0.864L183.998,102.668z"/>
		<path d="M196.524,107.559l-4.027-9.975h-0.06c0.04,0.611,0.06,1.237,0.06,1.877v8.098h-0.724V96.757h1.167l3.827,9.502h0.045
			l3.827-9.502h1.139v10.802h-0.761v-8.187c0-0.571,0.028-1.162,0.088-1.773h-0.06l-4.042,9.96H196.524z"/>
		<path d="M207.099,107.559V96.757h0.752v10.802H207.099z"/>
		<path d="M215.996,107.559h-0.761V97.466h-3.509v-0.709h7.78v0.709h-3.511V107.559z"/>
		<path d="M225.861,102.668l3.163-5.911h0.812l-3.599,6.627v4.175h-0.776v-4.116l-3.612-6.687h0.864L225.861,102.668z"/>
		<path d="M248.917,102.144c0,1.714-0.428,3.069-1.285,4.067c-0.857,0.997-2.041,1.496-3.547,1.496
			c-1.503,0-2.682-0.499-3.539-1.496c-0.857-0.998-1.287-2.359-1.287-4.082c0-1.72,0.433-3.073,1.297-4.06
			c0.866-0.988,2.046-1.481,3.544-1.481c1.506,0,2.687,0.496,3.539,1.488C248.491,99.068,248.917,100.424,248.917,102.144z
			 M240.08,102.144c0,1.546,0.345,2.742,1.035,3.587c0.689,0.845,1.68,1.267,2.969,1.267c1.3,0,2.294-0.419,2.981-1.256
			c0.687-0.837,1.03-2.037,1.03-3.598c0-1.557-0.343-2.75-1.03-3.58c-0.688-0.83-1.676-1.245-2.966-1.245
			c-1.287,0-2.277,0.419-2.975,1.257C240.428,99.412,240.08,100.602,240.08,102.144z"/>
		<path d="M259.632,104.774c0,0.901-0.331,1.615-0.994,2.143c-0.662,0.527-1.543,0.791-2.642,0.791c-1.32,0-2.332-0.146-3.036-0.436
			v-0.754c0.779,0.33,1.771,0.495,2.978,0.495c0.886,0,1.59-0.203,2.109-0.609c0.519-0.407,0.779-0.94,0.779-1.6
			c0-0.41-0.085-0.747-0.258-1.016c-0.173-0.269-0.453-0.514-0.842-0.735c-0.389-0.222-0.96-0.461-1.714-0.717
			c-1.104-0.379-1.866-0.789-2.287-1.23c-0.421-0.44-0.631-1.028-0.631-1.762c0-0.808,0.316-1.466,0.949-1.977
			c0.633-0.509,1.448-0.765,2.442-0.765c1.015,0,1.968,0.192,2.86,0.577l-0.273,0.65c-0.897-0.375-1.754-0.562-2.572-0.562
			c-0.797,0-1.433,0.185-1.906,0.554c-0.473,0.37-0.709,0.872-0.709,1.507c0,0.4,0.072,0.727,0.218,0.983
			c0.145,0.256,0.383,0.486,0.712,0.691c0.33,0.205,0.897,0.449,1.699,0.735c0.842,0.291,1.475,0.573,1.899,0.846
			c0.423,0.273,0.732,0.583,0.927,0.93C259.535,103.862,259.632,104.281,259.632,104.774z"/>
	</g>
</g>
<g>
	<g>
		<g>
			<g>
				<circle fill="#C3C3D1" cx="150" cy="54.188" r="31.053"/>
			</g>
			<g>
				<g>
					<path fill="#20AAE6" d="M162.19,45.298L162.19,45.298l-0.277-0.295c-0.068-0.071-0.139-0.145-0.204-0.214h-0.006
						l-11.882-12.518l-11.878,12.518l0,0c-0.013,0.013-0.031,0.03-0.044,0.043l-0.211,0.224l-0.226,0.243l0,0l-0.01,0.009
						c-2.856,3.115-4.429,7.146-4.429,11.354c0,9.267,7.535,16.8,16.8,16.8c9.267,0,16.807-7.534,16.807-16.8
						c0-4.207-1.572-8.238-4.43-11.354L162.19,45.298z"/>
				</g>
				<g>
					<circle fill-rule="evenodd" clip-rule="evenodd" fill="#FFFFFF" cx="149.826" cy="56.661" r="12.381"/>
					<circle fill-rule="evenodd" clip-rule="evenodd" fill="#D8E620" cx="149.826" cy="56.661" r="7.61"/>
					<circle fill-rule="evenodd" clip-rule="evenodd" fill="#FFFFFF" cx="149.826" cy="56.661" r="3.408"/>
				</g>
			</g>
		</g>
	</g>
</g>
</svg>
