<?xml version="1.0" encoding="utf-8"?>
<!-- Generator: Adobe Illustrator 17.0.0, SVG Export Plug-In . SVG Version: 6.00 Build 0)  -->
<!DOCTYPE svg PUBLIC "-//W3C//DTD SVG 1.1//EN" "http://www.w3.org/Graphics/SVG/1.1/DTD/svg11.dtd">
<svg version="1.1" id="Ebene_1" xmlns="http://www.w3.org/2000/svg" xmlns:xlink="http://www.w3.org/1999/xlink" x="0px" y="0px"
	 width="1702px" height="630px" viewBox="0 0 1702 630" enable-background="new 0 0 1702 630" xml:space="preserve">
<g>
	<defs>
		<rect id="SVGID_1_" width="1702" height="630"/>
	</defs>
	<clipPath id="SVGID_2_">
		<use xlink:href="#SVGID_1_"  overflow="visible"/>
	</clipPath>
	<g transform="matrix(1 0 0 1 0 0)" clip-path="url(#SVGID_2_)">
		
			<image overflow="visible" width="1920" height="1080" xlink:href="6C3FA495.jpg"  transform="matrix(0.8875 0 0 0.8875 0 0.3333)">
		</image>
	</g>
</g>
<g>
	<g>
		<g>
			<g>
				<g>
					<path fill="#C3C3D1" d="M850.371,207h-3.198C825.998,207,808,223.943,808,245.121v51.125C808,317.424,825.998,334,847.173,334
						h3.198C871.546,334,889,317.424,889,296.247v-51.125C889,223.943,871.546,207,850.371,207z M871,277.512
						c0,13.035-9.972,24.488-23.01,24.488h-1.07C833.882,302,823,290.547,823,277.512V244.46c0-13.037,10.882-23.46,23.921-23.46
						h1.07c13.038,0,23.01,10.422,23.01,23.46V277.512z"/>
				</g>
			</g>
			<path fill="#36393D" d="M608.921,268.773h28.599l16.309,84.676l12.736-84.676h29.045l-23.906,109.032h-36.195l-12.288-67.251
				l-12.289,67.251h-36.195l-23.906-109.032h29.045l12.736,84.676L608.921,268.773z"/>
			<path fill="#36393D" d="M1040.688,255.144c-3.204,3.127-7.038,4.691-11.507,4.691c-4.467,0-8.342-1.598-11.616-4.804
				c-3.279-3.201-4.916-7.072-4.916-11.617c0-4.543,1.637-8.414,4.916-11.619c3.274-3.2,7.149-4.804,11.616-4.804
				c4.469,0,8.304,1.603,11.507,4.804c3.2,3.205,4.802,7.115,4.802,11.731C1045.49,248.144,1043.889,252.016,1040.688,255.144z
				 M1014.212,377.805V268.773h29.939v109.032H1014.212z"/>
			<path fill="#36393D" d="M1103.58,342.056l-16.532,35.749h-31.057l30.385-58.091L1058,268.773h32.622l12.957,32.62l12.958-32.62
				h32.622l-28.376,50.941l30.384,58.091h-31.057L1103.58,342.056z"/>
			<path fill="#36393D" d="M962.919,268h-4.692c-9.385,0-16.227,1.146-21.227,6.358V271h-28v3.391
				c8,12.306,14.001,27.368,14.001,43.653c0,16.284-6.001,31.346-14.001,43.652V378h29v-85.544c0-1.191,1.362-2.229,2.182-3.123
				c0.817-0.894,2.775-1.334,3.97-1.334h12.286c1.192,0,1.353,0.44,2.175,1.334c0.817,0.894,0.387,1.932,0.387,3.123V378h32v-81.97
				C991,276.37,981.387,268,962.919,268z"/>
			<path fill="#36393D" d="M773.881,318.045c0-14.518,4.04-27.336,11.17-38.825c-4.277-7.956-12.361-11.22-24.11-11.22h-4.692
				c-7.746,0-16.25,0.326-19.25,3.901V234h-31v144h31v-85.991c0-2.681,2.64-4.009,5.174-4.009h12.288
				c1.191,0,2.342,0.44,3.163,1.334c0.817,0.894,1.374,1.932,1.374,3.123V378h30v-14.98
				C776,350.479,773.881,334.911,773.881,318.045z"/>
		</g>
		<g>
			<path d="M626.287,406.852c0,2.101-0.713,3.711-2.14,4.83c-1.426,1.12-3.447,1.679-6.063,1.679h-3.359v8.975h-1.516v-21.724h5.32
				C623.702,400.612,626.287,402.693,626.287,406.852z M614.727,412.054h2.987c2.447,0,4.215-0.403,5.305-1.212
				c1.09-0.807,1.634-2.117,1.634-3.93c0-1.674-0.516-2.916-1.545-3.722c-1.031-0.807-2.625-1.21-4.785-1.21h-3.596V412.054z"/>
			<path d="M637.094,412.871v9.465h-1.516v-21.724h5.171c2.695,0,4.686,0.497,5.974,1.493c1.288,0.996,1.932,2.494,1.932,4.494
				c0,1.456-0.384,2.685-1.152,3.686c-0.767,1.001-1.934,1.719-3.499,2.154l5.899,9.897h-1.814l-5.601-9.465H637.094z
				 M637.094,411.564h4.146c1.833,0,3.255-0.408,4.265-1.227c1.01-0.817,1.516-2.024,1.516-3.617c0-1.655-0.496-2.859-1.485-3.612
				c-0.991-0.753-2.606-1.128-4.845-1.128h-3.596V411.564z"/>
			<path d="M658.226,422.336v-21.724h1.516v21.724H658.226z"/>
			<path d="M683.298,400.612h1.649l-8.128,21.724h-1.337l-8.099-21.724h1.62l5.468,14.785c0.833,2.23,1.392,3.903,1.68,5.023
				c0.197-0.743,0.589-1.898,1.173-3.463L683.298,400.612z"/>
			<path d="M703.049,414.669h-8.827l-3.031,7.668h-1.679l8.737-21.815h0.966l8.559,21.815h-1.708L703.049,414.669z M694.772,413.301
				h7.772l-2.958-7.83c-0.248-0.614-0.545-1.466-0.891-2.556c-0.268,0.951-0.56,1.813-0.877,2.586L694.772,413.301z"/>
			<path d="M724.687,401.667c-2.725,0-4.869,0.872-6.434,2.616c-1.566,1.743-2.348,4.131-2.348,7.162c0,3.1,0.738,5.507,2.214,7.221
				c1.475,1.714,3.586,2.571,6.33,2.571c1.823,0,3.497-0.233,5.022-0.698v1.337c-1.436,0.505-3.229,0.758-5.379,0.758
				c-3.051,0-5.454-0.986-7.207-2.958c-1.753-1.972-2.63-4.725-2.63-8.262c0-2.209,0.419-4.156,1.256-5.84
				c0.837-1.684,2.04-2.985,3.61-3.9c1.57-0.917,3.395-1.376,5.476-1.376c2.12,0,4.017,0.397,5.692,1.19l-0.609,1.366
				C728.095,402.063,726.431,401.667,724.687,401.667z"/>
			<path d="M743.874,412.499l6.36-11.887h1.634l-7.237,13.329v8.396h-1.561v-8.277l-7.266-13.447h1.738L743.874,412.499z"/>
			<path d="M770.731,416.823c0-1.366,0.364-2.531,1.092-3.492c0.728-0.961,2.088-1.977,4.079-3.046l-1.115-1.218
				c-0.654-0.703-1.139-1.391-1.456-2.065c-0.317-0.673-0.475-1.376-0.475-2.109c0-1.418,0.473-2.543,1.419-3.374
				c0.946-0.832,2.216-1.247,3.811-1.247c1.536,0,2.751,0.4,3.648,1.204c0.896,0.802,1.345,1.911,1.345,3.327
				c0,1.041-0.347,1.993-1.04,2.86c-0.694,0.867-1.947,1.831-3.759,2.891l6.716,6.791c0.604-0.713,1.12-1.491,1.546-2.333
				c0.426-0.842,0.797-1.838,1.114-2.986h1.427c-0.624,2.437-1.659,4.546-3.106,6.33l3.953,3.982h-2.006l-2.868-2.928
				c-0.911,0.892-1.723,1.543-2.437,1.955c-0.713,0.41-1.493,0.725-2.34,0.942c-0.847,0.217-1.811,0.328-2.891,0.328
				c-2.07,0-3.697-0.511-4.881-1.532C771.323,420.083,770.731,418.656,770.731,416.823z M777.492,421.297
				c1.268,0,2.43-0.216,3.484-0.648c1.055-0.43,2.093-1.157,3.113-2.176l-7.177-7.207c-1.348,0.713-2.321,1.321-2.92,1.821
				c-0.599,0.5-1.035,1.043-1.307,1.627c-0.273,0.584-0.409,1.267-0.409,2.05c0,1.416,0.461,2.526,1.383,3.328
				C774.58,420.895,775.858,421.297,777.492,421.297z M774.446,404.862c0,0.782,0.197,1.505,0.594,2.169
				c0.396,0.665,1.149,1.525,2.259,2.586c1.575-0.842,2.67-1.63,3.284-2.364c0.614-0.733,0.921-1.57,0.921-2.511
				c0-0.931-0.307-1.687-0.921-2.266c-0.614-0.579-1.447-0.869-2.497-0.869c-1.13,0-2.019,0.286-2.667,0.86
				C774.77,403.044,774.446,403.841,774.446,404.862z"/>
			<path d="M821.17,414.669h-8.827l-3.031,7.668h-1.679l8.737-21.815h0.966l8.559,21.815h-1.708L821.17,414.669z M812.893,413.301
				h7.772l-2.958-7.83c-0.248-0.614-0.545-1.466-0.891-2.556c-0.268,0.951-0.56,1.813-0.877,2.586L812.893,413.301z"/>
			<path d="M849.332,422.336h-1.53l-12.869-19.287h-0.119c0.119,2.298,0.178,4.032,0.178,5.201v14.087h-1.456v-21.724h1.516
				l12.854,19.257h0.089c-0.089-1.783-0.133-3.476-0.133-5.082v-14.176h1.47V422.336z"/>
			<path d="M878.312,411.445c0,3.446-0.86,6.173-2.584,8.18c-1.724,2.005-4.104,3.01-7.134,3.01c-3.023,0-5.393-1.004-7.117-3.01
				c-1.724-2.007-2.588-4.744-2.588-8.21c0-3.458,0.87-6.18,2.608-8.165c1.741-1.987,4.114-2.979,7.127-2.979
				c3.029,0,5.403,0.998,7.117,2.993C877.455,405.26,878.312,407.987,878.312,411.445z M860.539,411.445
				c0,3.11,0.693,5.515,2.082,7.214c1.386,1.699,3.378,2.548,5.972,2.548c2.615,0,4.613-0.842,5.995-2.526
				c1.383-1.684,2.072-4.096,2.072-7.236c0-3.132-0.69-5.53-2.072-7.201c-1.383-1.669-3.371-2.504-5.965-2.504
				c-2.588,0-4.58,0.843-5.982,2.527C861.239,405.952,860.539,408.343,860.539,411.445z"/>
			<path d="M903.663,422.336h-1.53l-12.868-19.287h-0.12c0.12,2.298,0.181,4.032,0.181,5.201v14.087h-1.456v-21.724h1.513
				l12.855,19.257h0.09c-0.09-1.783-0.134-3.476-0.134-5.082v-14.176h1.47V422.336z"/>
			<path d="M919.373,412.499l6.361-11.887h1.634l-7.238,13.329v8.396h-1.56v-8.277l-7.264-13.447h1.737L919.373,412.499z"/>
			<path d="M944.564,422.336l-8.098-20.06h-0.121c0.08,1.228,0.121,2.487,0.121,3.774v16.286h-1.456v-21.724h2.347l7.696,19.11h0.09
				l7.696-19.11h2.29v21.724h-1.53v-16.465c0-1.148,0.057-2.337,0.177-3.565h-0.12l-8.128,20.03H944.564z"/>
			<path d="M965.831,422.336v-21.724h1.513v21.724H965.831z"/>
			<path d="M983.724,422.336h-1.53v-20.298h-7.057v-1.426h15.647v1.426h-7.06V422.336z"/>
			<path d="M1003.565,412.499l6.36-11.887h1.634l-7.238,13.329v8.396h-1.56v-8.277l-7.264-13.447h1.737L1003.565,412.499z"/>
			<path d="M1049.933,411.445c0,3.446-0.86,6.173-2.584,8.18c-1.724,2.005-4.104,3.01-7.134,3.01c-3.023,0-5.393-1.004-7.117-3.01
				c-1.724-2.007-2.588-4.744-2.588-8.21c0-3.458,0.87-6.18,2.608-8.165c1.741-1.987,4.114-2.979,7.127-2.979
				c3.03,0,5.403,0.998,7.117,2.993C1049.076,405.26,1049.933,407.987,1049.933,411.445z M1032.16,411.445
				c0,3.11,0.693,5.515,2.082,7.214c1.386,1.699,3.378,2.548,5.972,2.548c2.615,0,4.613-0.842,5.996-2.526
				c1.382-1.684,2.072-4.096,2.072-7.236c0-3.132-0.69-5.53-2.072-7.201c-1.383-1.669-3.371-2.504-5.965-2.504
				c-2.588,0-4.58,0.843-5.982,2.527C1032.86,405.952,1032.16,408.343,1032.16,411.445z"/>
			<path d="M1071.481,416.734c0,1.813-0.666,3.249-1.998,4.31c-1.332,1.06-3.103,1.59-5.313,1.59c-2.655,0-4.69-0.293-6.106-0.877
				v-1.517c1.567,0.665,3.562,0.996,5.989,0.996c1.781,0,3.197-0.408,4.242-1.225c1.044-0.818,1.567-1.89,1.567-3.217
				c0-0.824-0.171-1.503-0.519-2.044c-0.348-0.541-0.911-1.033-1.694-1.478c-0.783-0.447-1.932-0.927-3.448-1.443
				c-2.219-0.762-3.753-1.587-4.6-2.474c-0.847-0.885-1.269-2.067-1.269-3.543c0-1.625,0.636-2.949,1.908-3.975
				c1.272-1.024,2.913-1.538,4.911-1.538c2.042,0,3.957,0.387,5.751,1.16l-0.549,1.307c-1.804-0.753-3.528-1.13-5.172-1.13
				c-1.603,0-2.882,0.372-3.833,1.115c-0.951,0.743-1.426,1.754-1.426,3.031c0,0.803,0.144,1.461,0.438,1.977
				c0.291,0.516,0.77,0.977,1.433,1.389c0.663,0.412,1.804,0.904,3.418,1.478c1.694,0.586,2.966,1.152,3.82,1.702
				c0.85,0.549,1.473,1.173,1.865,1.871C1071.287,414.9,1071.481,415.743,1071.481,416.734z"/>
		</g>
	</g>
	<g>
		<g>
			<g>
				<g>
					<circle fill="#C3C3D1" cx="848.329" cy="317.537" r="62.451"/>
				</g>
				<g>
					<g>
						<path fill="#20AAE6" d="M872.845,299.659L872.845,299.659l-0.557-0.594c-0.137-0.143-0.28-0.291-0.41-0.431h-0.012
							l-23.896-25.176l-23.888,25.176l0,0c-0.027,0.027-0.063,0.059-0.089,0.086l-0.424,0.451l-0.455,0.488l0,0l-0.021,0.017
							c-5.745,6.265-8.906,14.372-8.906,22.833c0,18.636,15.154,33.787,33.787,33.787c18.638,0,33.801-15.151,33.801-33.787
							c0-8.461-3.162-16.568-8.91-22.833L872.845,299.659z"/>
					</g>
					<g>
						<path fill-rule="evenodd" clip-rule="evenodd" fill="#FFFFFF" d="M872.879,322.513c0,13.754-11.144,24.901-24.901,24.901
							c-13.754,0-24.899-11.147-24.899-24.901c0-13.754,11.144-24.898,24.899-24.898
							C861.735,297.614,872.879,308.758,872.879,322.513z"/>
						<circle fill-rule="evenodd" clip-rule="evenodd" fill="#D8E620" cx="847.979" cy="322.513" r="15.304"/>
						<circle fill-rule="evenodd" clip-rule="evenodd" fill="#FFFFFF" cx="847.979" cy="322.513" r="6.853"/>
					</g>
				</g>
			</g>
		</g>
	</g>
</g>
<g>
	<defs>
		<rect id="SVGID_3_" y="657" width="1500" height="500"/>
	</defs>
	<clipPath id="SVGID_4_">
		<use xlink:href="#SVGID_3_"  overflow="visible"/>
	</clipPath>
	<g transform="matrix(1 0 0 1 -3.814697e-006 0)" clip-path="url(#SVGID_4_)">
		
			<image overflow="visible" width="1920" height="1080" xlink:href="6C3FA497.jpg"  transform="matrix(0.7833 0 0 0.7833 55.6342 628.5014)">
		</image>
	</g>
</g>
</svg>
