<?xml version="1.0" encoding="utf-8"?>
<!-- Generator: Adobe Illustrator 17.0.0, SVG Export Plug-In . SVG Version: 6.00 Build 0)  -->
<!DOCTYPE svg PUBLIC "-//W3C//DTD SVG 1.1//EN" "http://www.w3.org/Graphics/SVG/1.1/DTD/svg11.dtd">
<svg version="1.1" id="Ebene_1" xmlns="http://www.w3.org/2000/svg" xmlns:xlink="http://www.w3.org/1999/xlink" x="0px" y="0px"
	 width="440px" height="220px" viewBox="0 0 440 220" enable-background="new 0 0 440 220" xml:space="preserve">
<g>
	<g>
		<g>
			<g>
				<path fill="#C3C3D1" d="M225.687,56h-1.59C213.568,56,205,64.723,205,75.254v25.421c0,10.53,8.568,19.325,19.097,19.325h1.59
					c10.529,0,19.313-8.794,19.313-19.325V75.254C245,64.723,236.216,56,225.687,56z M236,91.36c0,6.481-5.014,11.64-11.497,11.64
					h-0.532C217.488,103,212,97.841,212,91.36V74.925C212,68.442,217.488,63,223.972,63h0.532C230.986,63,236,68.442,236,74.925
					V91.36z"/>
			</g>
		</g>
		<path fill="#36393D" d="M105.629,87.014h14.221l8.11,42.104l6.333-42.104h14.442l-11.887,54.215H118.85l-6.11-33.44l-6.111,33.44
			H88.631L76.744,87.014h14.442l6.333,42.104L105.629,87.014z"/>
		<path fill="#36393D" d="M320.32,80.237c-1.593,1.555-3.5,2.332-5.722,2.332c-2.221,0-4.148-0.795-5.776-2.389
			c-1.63-1.592-2.444-3.516-2.444-5.776c0-2.259,0.814-4.184,2.444-5.778c1.628-1.591,3.555-2.389,5.776-2.389
			c2.222,0,4.129,0.797,5.722,2.389c1.591,1.594,2.388,3.538,2.388,5.833C322.708,76.756,321.912,78.682,320.32,80.237z
			 M307.156,141.229V87.014h14.887v54.215H307.156z"/>
		<path fill="#36393D" d="M351.592,123.453l-8.22,17.776h-15.443l15.108-28.885l-14.109-25.33h16.221l6.443,16.22l6.443-16.22
			h16.221l-14.11,25.33l15.108,28.885h-15.443L351.592,123.453z"/>
		<path fill="#36393D" d="M281.65,87h-2.333C274.651,87,272,87.2,269,89.791V88h-14v1.808c4,6.119,6.962,13.609,6.962,21.706
			c0,8.097-2.962,15.586-6.962,21.705V141h15V98.79c0-0.592,0.307-1.396,0.715-1.84c0.406-0.444,1.01-0.95,1.604-0.95h6.109
			c0.593,0,0.822,0.506,1.231,0.95c0.406,0.444,0.342,1.248,0.342,1.84V141h16v-40.433C296,90.791,290.834,87,281.65,87z"/>
		<path fill="#36393D" d="M188.068,111.514c0-7.219,1.802-13.407,5.347-19.12C191.289,88.438,187.062,87,181.22,87h-2.333
			c-3.852,0-6.887-0.208-8.887,1.569V69h-16v72h16V98.568c0-1.333,0.628-2.568,1.888-2.568h6.11c0.592,0,1.537,0.506,1.946,0.95
			c0.406,0.444,1.056,1.248,1.056,1.84V141h15v-7.122C189,127.641,188.068,119.9,188.068,111.514z"/>
	</g>
	<g>
		<path d="M114.264,155.672c0,1.045-0.355,1.845-1.064,2.402c-0.709,0.557-1.714,0.835-3.015,0.835h-1.67v4.463h-0.754V152.57h2.645
			C112.979,152.57,114.264,153.604,114.264,155.672z M108.516,158.259h1.485c1.217,0,2.096-0.201,2.638-0.603
			c0.542-0.401,0.813-1.053,0.813-1.954c0-0.832-0.256-1.45-0.768-1.851c-0.513-0.401-1.305-0.602-2.379-0.602h-1.788V158.259z"/>
		<path d="M119.637,158.665v4.707h-0.754V152.57h2.571c1.34,0,2.33,0.247,2.97,0.742c0.64,0.495,0.96,1.24,0.96,2.235
			c0,0.724-0.191,1.335-0.573,1.833c-0.382,0.498-0.962,0.855-1.74,1.071l2.933,4.921h-0.902l-2.785-4.707H119.637z
			 M119.637,158.015h2.062c0.911,0,1.618-0.203,2.121-0.61c0.502-0.406,0.754-1.006,0.754-1.799c0-0.823-0.246-1.421-0.739-1.796
			c-0.493-0.375-1.296-0.561-2.409-0.561h-1.788V158.015z"/>
		<path d="M130.145,163.372V152.57h0.754v10.802H130.145z"/>
		<path d="M142.612,152.57h0.82l-4.042,10.802h-0.665l-4.027-10.802h0.805l2.719,7.352c0.414,1.109,0.692,1.941,0.835,2.498
			c0.098-0.37,0.293-0.944,0.583-1.722L142.612,152.57z"/>
		<path d="M152.433,159.559h-4.389l-1.507,3.813h-0.835l4.344-10.847h0.48l4.256,10.847h-0.849L152.433,159.559z M148.317,158.879
			h3.865l-1.471-3.893c-0.123-0.305-0.271-0.729-0.443-1.271c-0.133,0.473-0.278,0.901-0.436,1.286L148.317,158.879z"/>
		<path d="M163.192,153.094c-1.355,0-2.421,0.434-3.199,1.301c-0.779,0.866-1.168,2.054-1.168,3.561c0,1.541,0.367,2.738,1.101,3.59
			c0.734,0.852,1.783,1.278,3.148,1.278c0.906,0,1.739-0.116,2.497-0.347v0.665c-0.714,0.251-1.606,0.377-2.674,0.377
			c-1.517,0-2.712-0.49-3.584-1.471c-0.872-0.98-1.308-2.349-1.308-4.108c0-1.099,0.208-2.067,0.625-2.904
			c0.416-0.837,1.015-1.484,1.795-1.939c0.781-0.456,1.688-0.684,2.723-0.684c1.054,0,1.997,0.197,2.83,0.592l-0.303,0.679
			C164.887,153.291,164.059,153.094,163.192,153.094z"/>
		<path d="M172.733,158.481l3.163-5.911h0.813l-3.598,6.627v4.175h-0.776v-4.116l-3.613-6.687h0.864L172.733,158.481z"/>
		<path d="M186.087,160.63c0-0.679,0.181-1.258,0.543-1.736c0.362-0.478,1.038-0.983,2.028-1.515l-0.554-0.606
			c-0.325-0.35-0.566-0.692-0.724-1.027c-0.158-0.335-0.236-0.684-0.236-1.049c0-0.705,0.235-1.264,0.706-1.678
			c0.47-0.414,1.102-0.62,1.895-0.62c0.764,0,1.368,0.199,1.814,0.598c0.446,0.399,0.669,0.95,0.669,1.655
			c0,0.518-0.173,0.991-0.517,1.422c-0.345,0.431-0.968,0.911-1.869,1.437l3.34,3.377c0.3-0.355,0.557-0.742,0.769-1.16
			c0.212-0.419,0.396-0.914,0.554-1.485h0.709c-0.31,1.212-0.825,2.26-1.544,3.148l1.965,1.98h-0.997l-1.426-1.456
			c-0.453,0.444-0.857,0.767-1.212,0.972c-0.355,0.204-0.742,0.36-1.164,0.469c-0.421,0.108-0.9,0.163-1.437,0.163
			c-1.03,0-1.838-0.254-2.427-0.762C186.381,162.252,186.087,161.542,186.087,160.63z M189.449,162.855
			c0.63,0,1.208-0.107,1.732-0.322c0.525-0.214,1.041-0.575,1.548-1.082l-3.569-3.584c-0.67,0.355-1.154,0.657-1.452,0.906
			c-0.298,0.249-0.515,0.519-0.65,0.809c-0.136,0.29-0.203,0.63-0.203,1.02c0,0.704,0.229,1.256,0.687,1.655
			C188.001,162.655,188.636,162.855,189.449,162.855z M187.934,154.683c0,0.389,0.098,0.748,0.295,1.079
			c0.197,0.33,0.571,0.758,1.123,1.286c0.783-0.419,1.328-0.811,1.633-1.175c0.305-0.365,0.458-0.781,0.458-1.248
			c0-0.463-0.153-0.839-0.458-1.127s-0.72-0.432-1.241-0.432c-0.562,0-1.004,0.142-1.326,0.428
			C188.095,153.779,187.934,154.175,187.934,154.683z"/>
		<path d="M211.167,159.559h-4.389l-1.507,3.813h-0.835l4.344-10.847h0.48l4.256,10.847h-0.849L211.167,159.559z M207.052,158.879
			h3.865l-1.471-3.893c-0.123-0.305-0.271-0.729-0.443-1.271c-0.133,0.473-0.278,0.901-0.436,1.286L207.052,158.879z"/>
		<path d="M225.17,163.372h-0.761l-6.399-9.59h-0.059c0.059,1.143,0.089,2.005,0.089,2.586v7.004h-0.724V152.57h0.754l6.391,9.575
			h0.044c-0.044-0.886-0.066-1.729-0.066-2.527v-7.049h0.731V163.372z"/>
		<path d="M239.58,157.956c0,1.714-0.428,3.069-1.285,4.067c-0.857,0.997-2.041,1.496-3.547,1.496c-1.503,0-2.682-0.499-3.539-1.496
			c-0.857-0.998-1.287-2.359-1.287-4.082c0-1.719,0.433-3.073,1.297-4.06c0.866-0.988,2.046-1.481,3.544-1.481
			c1.506,0,2.687,0.496,3.539,1.488C239.154,154.881,239.58,156.237,239.58,157.956z M230.743,157.956
			c0,1.546,0.345,2.742,1.035,3.587c0.689,0.845,1.68,1.267,2.97,1.267c1.3,0,2.294-0.419,2.981-1.256
			c0.688-0.837,1.03-2.037,1.03-3.598c0-1.557-0.343-2.75-1.03-3.58c-0.687-0.83-1.676-1.245-2.966-1.245
			c-1.287,0-2.277,0.419-2.975,1.257C231.091,155.225,230.743,156.414,230.743,157.956z"/>
		<path d="M252.186,163.372h-0.761l-6.399-9.59h-0.06c0.06,1.143,0.09,2.005,0.09,2.586v7.004h-0.724V152.57h0.752l6.392,9.575
			h0.045c-0.045-0.886-0.067-1.729-0.067-2.527v-7.049h0.731V163.372z"/>
		<path d="M259.998,158.481l3.163-5.911h0.812l-3.599,6.627v4.175h-0.776v-4.116l-3.612-6.687h0.864L259.998,158.481z"/>
		<path d="M272.524,163.372l-4.027-9.975h-0.06c0.04,0.611,0.06,1.237,0.06,1.877v8.098h-0.724V152.57h1.167l3.827,9.502h0.045
			l3.827-9.502h1.139v10.802h-0.761v-8.187c0-0.571,0.028-1.162,0.088-1.773h-0.06l-4.042,9.96H272.524z"/>
		<path d="M283.099,163.372V152.57h0.752v10.802H283.099z"/>
		<path d="M291.996,163.372h-0.761v-10.093h-3.509v-0.709h7.78v0.709h-3.51V163.372z"/>
		<path d="M301.861,158.481l3.163-5.911h0.812l-3.599,6.627v4.175h-0.776v-4.116l-3.612-6.687h0.864L301.861,158.481z"/>
		<path d="M324.917,157.956c0,1.714-0.428,3.069-1.285,4.067c-0.857,0.997-2.041,1.496-3.547,1.496
			c-1.503,0-2.682-0.499-3.539-1.496c-0.857-0.998-1.287-2.359-1.287-4.082c0-1.719,0.433-3.073,1.297-4.06
			c0.866-0.988,2.046-1.481,3.544-1.481c1.506,0,2.687,0.496,3.539,1.488C324.491,154.881,324.917,156.237,324.917,157.956z
			 M316.08,157.956c0,1.546,0.345,2.742,1.035,3.587c0.689,0.845,1.68,1.267,2.97,1.267c1.3,0,2.294-0.419,2.981-1.256
			c0.687-0.837,1.03-2.037,1.03-3.598c0-1.557-0.343-2.75-1.03-3.58c-0.688-0.83-1.676-1.245-2.966-1.245
			c-1.287,0-2.277,0.419-2.975,1.257C316.428,155.225,316.08,156.414,316.08,157.956z"/>
		<path d="M335.632,160.586c0,0.901-0.331,1.615-0.994,2.143c-0.662,0.527-1.543,0.791-2.642,0.791c-1.32,0-2.332-0.146-3.036-0.436
			v-0.754c0.779,0.33,1.771,0.495,2.978,0.495c0.886,0,1.59-0.203,2.109-0.609c0.519-0.407,0.779-0.94,0.779-1.6
			c0-0.41-0.085-0.747-0.258-1.016c-0.173-0.269-0.453-0.514-0.842-0.735c-0.389-0.222-0.96-0.461-1.714-0.717
			c-1.104-0.379-1.866-0.789-2.287-1.23c-0.421-0.44-0.631-1.028-0.631-1.762c0-0.808,0.316-1.466,0.949-1.977
			c0.633-0.509,1.448-0.765,2.442-0.765c1.015,0,1.968,0.192,2.86,0.577l-0.273,0.65c-0.897-0.375-1.754-0.562-2.572-0.562
			c-0.797,0-1.433,0.185-1.906,0.554s-0.709,0.872-0.709,1.507c0,0.4,0.072,0.727,0.218,0.983c0.145,0.256,0.383,0.486,0.712,0.691
			c0.33,0.205,0.897,0.449,1.699,0.735c0.842,0.291,1.475,0.573,1.899,0.846c0.423,0.273,0.732,0.583,0.927,0.93
			C335.535,159.674,335.632,160.094,335.632,160.586z"/>
	</g>
</g>
<g>
	<g>
		<g>
			<g>
				<circle fill="#C3C3D1" cx="226" cy="110" r="31.053"/>
			</g>
			<g>
				<g>
					<path fill="#20AAE6" d="M238.19,101.11L238.19,101.11l-0.277-0.295c-0.068-0.071-0.139-0.145-0.204-0.214h-0.006
						l-11.882-12.518L213.943,100.6l0,0c-0.013,0.013-0.031,0.03-0.044,0.043l-0.211,0.224l-0.226,0.243l0,0l-0.01,0.009
						c-2.856,3.115-4.429,7.146-4.429,11.354c0,9.267,7.535,16.8,16.8,16.8c9.267,0,16.807-7.534,16.807-16.8
						c0-4.207-1.572-8.238-4.43-11.354L238.19,101.11z"/>
				</g>
				<g>
					<circle fill-rule="evenodd" clip-rule="evenodd" fill="#FFFFFF" cx="225.826" cy="112.474" r="12.381"/>
					<circle fill-rule="evenodd" clip-rule="evenodd" fill="#D8E620" cx="225.826" cy="112.474" r="7.61"/>
					<circle fill-rule="evenodd" clip-rule="evenodd" fill="#FFFFFF" cx="225.826" cy="112.474" r="3.408"/>
				</g>
			</g>
		</g>
	</g>
</g>
</svg>
