<svg width="100mm" height="100mm" version="1.1" viewBox="0 0 100 100" xml:space="preserve" xmlns="http://www.w3.org/2000/svg"><defs><filter id="filter93606-9" x="-.43467" y="-.42722" width="2.034" height="2.0163" color-interpolation-filters="sRGB"><feFlood flood-color="rgb(0,0,0)" flood-opacity=".25098" result="flood"/><feComposite in="flood" in2="SourceGraphic" operator="in" result="composite1"/><feGaussianBlur in="composite1" result="blur" stdDeviation="1.1"/><feOffset dx="1" dy="1" result="offset"/><feComposite in="SourceGraphic" in2="offset" result="composite2"/></filter><filter id="filter93630-3" x="-.4212" y="-.19662" width="2.002" height="1.4677" color-interpolation-filters="sRGB"><feFlood flood-color="rgb(0,0,0)" flood-opacity=".25098" result="flood"/><feComposite in="flood" in2="SourceGraphic" operator="in" result="composite1"/><feGaussianBlur in="composite1" result="blur" stdDeviation="1.1"/><feOffset dx="1" dy="1" result="offset"/><feComposite in="SourceGraphic" in2="offset" result="composite2"/></filter><filter id="filter93618-4" x="-.17334" y="-.16696" width="1.4123" height="1.3972" color-interpolation-filters="sRGB"><feFlood flood-color="rgb(0,0,0)" flood-opacity=".25098" result="flood"/><feComposite in="flood" in2="SourceGraphic" operator="in" result="composite1"/><feGaussianBlur in="composite1" result="blur" stdDeviation="1.1"/><feOffset dx="1" dy="1" result="offset"/><feComposite in="SourceGraphic" in2="offset" result="composite2"/></filter><linearGradient id="linearGradient116950" x1="-10.232" x2="-7.6179" y1="1398.7" y2="1416.3" gradientTransform="translate(18.451,-1386.1)" gradientUnits="userSpaceOnUse"><stop stop-color="#a3cfff" offset="0"/><stop stop-color="#54a2f9" offset="1"/></linearGradient><linearGradient id="linearGradient116952" x1="36.553" x2="60.53" y1="845.73" y2="845.73" gradientTransform="rotate(-90,-372.51,442.76)" gradientUnits="userSpaceOnUse"><stop stop-color="#2e57a7" offset="0"/><stop stop-color="#4268be" offset=".13217"/><stop stop-color="#366cca" offset=".898"/><stop stop-color="#2e57a7" offset="1"/></linearGradient></defs><g display="none"><rect x="4.4847" y="694.16" width="201.68" height="334.54" fill="#ccc" style="paint-order:fill markers stroke"/></g><g transform="matrix(2.3664 0 0 2.3664 -.00015821 .11298)"><g stroke-linecap="round" stroke-linejoin="round"><path d="m20.706 9.5614c-0.6473 0.8343 0.027 2.5052 0 4.0335l-7.0124 0.027c-2.6375 0-5.0746 1.407-6.3934 3.6912-1.3186 2.2841-1.3186 5.0982 0 7.3822 1.3188 2.2842 3.7559 3.6913 6.3934 3.6913v-2e-4h7.0124c0.086 1.6329-0.5187 2.8214 0 4.0606l-7.0124 0.4833c-7.2827 0-9.882-2.7456-11.683-5.777-2.044-3.5403-1.9858-8.33 0.058-11.87 2.044-3.5404 5.4487-6.1749 11.625-6.1749z" fill="url(#linearGradient116950)" stroke="#2e57a7" style="paint-order:fill markers stroke"/><path d="m3.3091 18.409c-0.35513-2.7941 1.4876-5.8081 4.9102-5.8364-2.1131 0.4204-4.546 3.7539-4.9102 5.8364z" fill="#fff" fill-rule="evenodd" stroke="#fff" stroke-width=".49896"/><path d="m41.959 12.023v18.225c0 2.2969-1.7717 4.1051-3.9716 4.1461l-17.847 0.3321c-7.4191-1.5727-6.6699-27.078 0-27.289l17.847 0.4388c2.1996 0.054 3.9716 1.8492 3.9716 4.1462z" fill="url(#linearGradient116952)" stroke="#2e57a6" stroke-width=".6" style="paint-order:fill markers stroke"/></g><g transform="translate(18.629,-1386.2)" fill-rule="evenodd"><path d="m14.312 1409-1.7421 3.6488 1.4442 1.7061c0.30446 0.383 0.93207 0.8246 1.9718 0.8246h2.0085c0.70031 6e-4 0.81136-0.5824 0.44187-0.999z" fill="#a3cfff" filter="url(#filter93606-9)"/><path d="m8.2833 1398.9-3.21 2.0865c-0.44916 0.3221-0.65452 0.4584-0.85063 1.2315l-1.1645 9.957 6.2052-12.647c0.31071-0.7229-0.61858-0.9696-0.98008-0.6284z" fill="#a3cfff" filter="url(#filter93630-3)"/><path d="m16.844 1399.5-5.2015 6.4178-3.0317-3.5112-5.8121 11.796c-0.21385 0.7667 0.82105 1.0229 1.0978 0.6421l5.113-6.1118 2.9676 3.5979 5.9484-12.158c0.33806-0.6925-0.54918-1.3704-1.0814-0.6733z" fill="#fff215" filter="url(#filter93618-4)"/></g></g><text transform="scale(.26458)" fill="#000000" font-family="'Source Sans Pro'" font-size="26.667px" letter-spacing="7.92px" word-spacing="0px" style="line-height:100%;shape-inside:url(#rect5557);white-space:pre" xml:space="preserve"/><g display="none" fill="none" stroke="#000" stroke-width=".26458px"><path d="m53.82 194.18 24.941 23.572"/><path d="m57.849 191.59 24.327 23.274" display="inline"/></g></svg>
