<svg width="40mm" height="40mm" viewBox="0 0 40 40" xmlns="http://www.w3.org/2000/svg"><defs><filter id="a" x="-.435" y="-.427" width="2.034" height="2.016" color-interpolation-filters="sRGB"><feFlood flood-color="#000" flood-opacity=".251" result="flood"/><feComposite in="flood" in2="SourceGraphic" operator="in" result="composite1"/><feGaussianBlur in="composite1" result="blur" stdDeviation="1.1"/><feOffset dx="1" dy="1" result="offset"/><feComposite in="SourceGraphic" in2="offset" result="composite2"/></filter><filter id="b" x="-.421" y="-.197" width="2.002" height="1.468" color-interpolation-filters="sRGB"><feFlood flood-color="#000" flood-opacity=".251" result="flood"/><feComposite in="flood" in2="SourceGraphic" operator="in" result="composite1"/><feGaussianBlur in="composite1" result="blur" stdDeviation="1.1"/><feOffset dx="1" dy="1" result="offset"/><feComposite in="SourceGraphic" in2="offset" result="composite2"/></filter><filter id="c" x="-.173" y="-.167" width="1.412" height="1.397" color-interpolation-filters="sRGB"><feFlood flood-color="#000" flood-opacity=".251" result="flood"/><feComposite in="flood" in2="SourceGraphic" operator="in" result="composite1"/><feGaussianBlur in="composite1" result="blur" stdDeviation="1.1"/><feOffset dx="1" dy="1" result="offset"/><feComposite in="SourceGraphic" in2="offset" result="composite2"/></filter></defs><path transform="rotate(180) scale(1.5505)" fill="#3c6ac4" style="paint-order:fill markers stroke" d="M-25.797-25.797H0V0h-25.797z"/><g fill-rule="evenodd"><path d="m14.312 1409-1.742 3.649 1.444 1.706c.305.383.932.825 1.972.825h2.008c.7 0 .812-.583.442-1z" fill="#a3cfff" filter="url(#a)" transform="translate(3.253 -2162.792) scale(1.5505)"/><path d="m8.283 1398.9-3.21 2.087c-.449.322-.654.458-.85 1.231l-1.165 9.957 6.205-12.647c.311-.723-.618-.97-.98-.628z" fill="#a3cfff" filter="url(#b)" transform="translate(3.253 -2162.792) scale(1.5505)"/><path d="m16.844 1399.5-5.202 6.418-3.031-3.511-5.812 11.796c-.214.766.82 1.023 1.098.642l5.113-6.112 2.967 3.598 5.949-12.158c.338-.693-.55-1.37-1.082-.673z" fill="#fff215" filter="url(#c)" transform="translate(3.253 -2162.792) scale(1.5505)"/></g></svg>