<svg width="50mm" height="50mm" viewBox="0 0 50 50" xmlns="http://www.w3.org/2000/svg"><defs><radialGradient id="a" cx="250.34" cy="1008" r="26.421" gradientTransform="matrix(1.5299 -.01765 .02101 1.8217 -221.03 -227.33)" gradientUnits="userSpaceOnUse"><stop stop-color="#7ecff3" stop-opacity=".98" offset="0"/><stop stop-color="#87d0ef" stop-opacity=".988" offset=".669"/><stop stop-color="#0c84ce" offset="1"/></radialGradient></defs><g transform="translate(.778 -.104)"><path d="M-.003 42.652h2.487l.556 3.072q.088.556.146 1.112.059.54.146 1.111h.059l.175-1.126q.103-.57.234-1.097l.673-3.072H6.61l.702 3.072q.132.556.22 1.112.102.54.22 1.111h.058q.087-.57.146-1.111.058-.556.146-1.112l.556-3.072h2.311l-1.667 7.314H6.375l-.527-2.545-.175-1.024q-.088-.512-.176-1.127H5.44l-.161 1.127q-.073.512-.161 1.024l-.497 2.545H1.752zm12.171-2.866h2.516v2.37l-.117 1.258q.38-.337.907-.63.542-.306 1.288-.306 1.2 0 1.74.819.542.804.542 2.165v4.506h-2.516v-4.184q0-.702-.176-.936t-.556-.235q-.351 0-.585.147-.234.146-.527.41v4.798h-2.516zm16.705 2.866h2.048l.176.877h.058q.44-.424.995-.731.57-.322 1.317-.322 1.2 0 1.74.82.542.804.542 2.164v4.506h-2.516v-4.184q0-.702-.176-.936-.176-.234-.556-.234-.351 0-.585.146-.234.147-.527.41v4.798h-2.516zm8.515 0h2.516v7.314h-2.516zm5.763 3.508-2.077-3.51h2.692l.526 1.024q.147.307.293.629.146.321.292.629h.059q.102-.308.22-.63.116-.321.219-.628l.35-1.024h2.605l-2.078 3.803 2.195 3.51h-2.692l-.585-1.023q-.161-.307-.322-.63-.16-.321-.322-.628h-.058q-.117.307-.249.629-.132.307-.249.629l-.41 1.024h-2.603z"/><circle cx="38.64" cy="40.544" r="1.339" fill="#d8e620" stroke="#000" stroke-linecap="round" stroke-linejoin="round" stroke-width=".328" style="paint-order:fill markers stroke"/><path d="M20.639 46.232c0 1.876 1.51 3.396 3.371 3.396 1.862 0 3.371-1.52 3.371-3.396a3.416 3.416 0 0 0-3.401-3.346c-2.01-.022-3.317 1.765-3.341 3.346z" fill="#82cff1" fill-opacity=".984" stroke="#000" stroke-width="1.201"/><path d="M181.79 1526.8c-16.589 0-30.485 13.23-30.485 29.822v14.603a45.449 45.449 0 0 0-13.751 32.566 45.449 45.449 0 0 0 45.452 45.448 45.449 45.449 0 0 0 45.448-45.448 45.449 45.449 0 0 0-14.384-33.097v-14.073c0-16.592-13.184-29.822-29.773-29.822zm-.196 10.727h.839c10.214 0 18.228 8.363 18.228 18.577v5.81a45.449 45.449 0 0 0-17.656-3.571 45.449 45.449 0 0 0-19.897 4.623v-6.862c0-10.214 8.272-18.577 18.487-18.577z" fill="url(#a)" stroke="#000" stroke-width="3.576" transform="translate(-28.882 -440.45) scale(.28897)"/><path d="M17.873 21.122c.075-3.927 1.31-6.731 2.281-6.731 1.197 0 2.917 1.645 4.114 1.645.748 0 2.43-1.197 3.74-1.197.673 0 1.754 2.132 1.791 5.722-4.719.27-7.854 2.109-11.925.56zm4.641 4.074c.725-.444 1.91-.415 2.551-.05l.01.528c-.674-.37-1.857-.346-2.55.051z" fill-rule="evenodd"/><path d="M26.077 29.993s-.217.816-2.037.88c-2.02.095-2.272-.68-2.272-.68" fill="none" stroke="#000" stroke-linecap="round" stroke-linejoin="round" stroke-width="1.033"/><path d="M14.31 21.642c.036-1.431 5.953 1.088 7.78.85 2.848-.206 10.68-2.639 11.074-.814.287 1.61-2.2.345-6.825 1.049 0 0-12.028 1.312-12.028-1.085zm3.283 3.641c.591-.859 3.271-1.124 5.217-.271 0 0 .292.868-.076 1.423-.303.916-3.089 1.854-4.704.804-.614-.51-.702-1.198-.437-1.956zm12.362-.607c-.693-.779-3.385-.708-5.21.38 0 0-.181.897.252 1.402.414.872 3.295 1.456 4.768.213.545-.582.548-1.275.19-1.995z" fill-rule="evenodd"/></g></svg>