<?xml version="1.0" encoding="UTF-8"?>
<svg version="1.2" baseProfile="tiny-ps" viewBox="0 0 600 600" xml:space="preserve" xmlns="http://www.w3.org/2000/svg">
<title>Whonix</title>
<desc>Whonix is the most watertight privacy operating system in the world</desc>

<path d="m294.72 54.904c-65.51 0-120.39 52.244-120.39 117.77v57.669a179.48 179.48 0 0 0-54.305 128.6 179.48 179.48 0 0 0 179.49 179.48 179.48 179.48 0 0 0 179.48-179.48 179.48 179.48 0 0 0-56.8-130.7v-55.574c0-65.521-52.062-117.77-117.57-117.77zm-0.77218 42.363h3.3096c40.336 0 71.983 33.026 71.983 73.362v22.946a179.48 179.48 0 0 0-69.722-14.107 179.48 179.48 0 0 0-78.575 18.257v-27.097c0-40.336 32.668-73.362 73.004-73.362z" fill="#7dcff3" fill-opacity=".98039" stroke="#000" stroke-width="14.121"/><path d="m215.78 333.56c1.0221-53.659 17.886-91.986 31.173-91.986 16.353 0 39.86 22.485 56.213 22.485 10.22 0 33.217-16.352 51.103-16.352 9.1985 0 23.973 29.135 24.484 78.195-64.485 3.6951-107.33 28.814-162.97 7.6587z" fill-rule="evenodd"/><path d="m279.23 388.88c9.9089-6.07 26.091-5.668 34.864-0.69186l0.14334 7.2255c-9.2264-5.0567-25.394-4.7352-34.863 0.69187z" fill-rule="evenodd"/><path d="m327.92 454.68s-2.9705 11.154-27.846 12.031c-27.605 1.2949-31.039-9.3015-31.039-9.3015" fill="none" stroke="#000" stroke-linecap="round" stroke-linejoin="round" stroke-width="14.121"/><g fill-rule="evenodd"><path d="m167.1 340.61c0.48861-19.557 81.344 14.867 106.31 11.618 38.92-2.8137 145.96-36.063 151.34-11.129 3.9113 22.001-30.062 4.7202-93.272 14.339 0 0-164.38 17.93-164.38-14.828z"/><path d="m211.95 390.18c8.0767-11.738 44.703-15.355 71.287-3.7093 0 0 3.9899 11.866-1.0352 19.454-4.1334 12.521-42.206 25.333-64.285 10.987-8.3819-6.9759-9.5936-16.368-5.9665-26.732z"/><path d="m380.91 382.02c-9.473-10.643-46.265-9.6806-71.195 5.1787 0 0-2.4842 12.27 3.4448 19.174 5.6575 11.911 45.027 19.892 65.152 2.9136 7.45-7.964 7.4851-17.434 2.5982-27.266z"/>
</g></svg>
