<svg xmlns="http://www.w3.org/2000/svg" width="500pt" height="500pt" viewBox="0 0 500 500"><defs><radialGradient id="a" gradientUnits="userSpaceOnUse" cx="250.34" cy="1008.022" fx="250.34" fy="1008.022" r="26.421" gradientTransform="matrix(8.09576 -.09408 .1112 9.7112 -1887.952 -9512.992)"><stop offset="0" style="stop-color:#7ecff3;stop-opacity:.980392"/><stop offset=".669" style="stop-color:#87d0ef;stop-opacity:.988235"/><stop offset="1" style="stop-color:#0c84ce;stop-opacity:1"/></radialGradient></defs><path style="fill-rule:nonzero;fill:url(#a);stroke-width:18.991699;stroke-linecap:butt;stroke-linejoin:miter;stroke:#000;stroke-opacity:1;stroke-miterlimit:4" d="M9.496 248.23C9.5 382.04 117.184 490.513 250.008 490.505c132.82-.004 240.492-108.473 240.496-242.273-.852-119.333-98.488-237.196-242.676-238.723C104.402 7.992 11.227 135.477 9.496 248.23Zm0 0"/><path style="stroke:none;fill-rule:evenodd;fill:#000;fill-opacity:1" d="M137.793 217.324c1.371-71.914 23.969-123.281 41.777-123.281 21.914 0 53.418 30.137 75.336 30.137 13.696 0 44.516-21.914 68.485-21.914 12.328 0 32.129 39.043 32.812 104.793-86.422 4.953-143.844 38.617-218.41 10.265Zm85.027 74.129c13.282-8.133 34.97-7.594 46.727-.926l.191 9.684c-12.367-6.777-34.031-6.348-46.722.926Zm0 0"/><path style="fill:none;stroke-width:18.9244;stroke-linecap:round;stroke-linejoin:round;stroke:#000;stroke-opacity:1;stroke-miterlimit:4" d="M288.07 379.637s-3.98 14.949-37.32 16.125c-36.996 1.734-41.598-12.465-41.598-12.465"/><path style="stroke:none;fill-rule:evenodd;fill:#000;fill-opacity:1" d="M72.547 226.773c.656-26.21 109.016 19.926 142.48 15.57 52.16-3.769 195.614-48.331 202.825-14.913 5.238 29.484-40.29 6.324-125.004 19.215 0 0-220.301 24.03-220.301-19.872Zm60.109 66.434c10.824-15.734 59.906-20.578 95.535-4.973 0 0 5.348 15.903-1.386 26.07-5.54 16.782-56.563 33.954-86.153 14.727-11.234-9.351-12.859-21.937-7.996-35.824Zm226.438-10.945c-12.696-14.262-62-12.973-95.414 6.941 0 0-3.328 16.442 4.617 25.695 7.582 15.961 60.344 26.66 87.316 3.907 9.985-10.676 10.032-23.368 3.48-36.543Zm0 0"/></svg>